<svg width="24" height="24" viewBox="0 0 24 24" fill="none" xmlns="http://www.w3.org/2000/svg">
<path fill-rule="evenodd" clip-rule="evenodd" d="M5.53598 8.41077C5.8614 8.1545 6.33296 8.21056 6.58923 8.53598L10.0284 12.9032L10.0384 12.9172C10.7473 13.9074 11.4413 14.25 12 14.25C12.5587 14.25 13.2527 13.9074 13.9616 12.9172L13.9716 12.9032L17.4108 8.53598C17.667 8.21056 18.1386 8.1545 18.464 8.41077C18.7894 8.66704 18.8455 9.1386 18.5892 9.46402L15.171 13.8046C14.3101 15.0011 13.2221 15.75 12 15.75C10.7779 15.75 9.68994 15.0011 8.82901 13.8046L5.41077 9.46402C5.1545 9.1386 5.21056 8.66704 5.53598 8.41077Z" fill="#FFFEE3"/>
</svg>
