<svg width="278" height="114" viewBox="0 0 278 114" fill="none" xmlns="http://www.w3.org/2000/svg">
<path d="M49.5144 76.12C47.9144 76.12 47.1144 75.68 47.1144 74.8V35.2C47.1144 34.32 47.9144 33.88 49.5144 33.88H49.9944C51.5944 33.88 52.3944 34.32 52.3944 35.2V52.18H74.1144V35.2C74.1144 34.32 74.9144 33.88 76.5144 33.88H76.9944C78.5944 33.88 79.3944 34.32 79.3944 35.2V74.8C79.3944 75.68 78.5944 76.12 76.9944 76.12H76.5144C74.9144 76.12 74.1144 75.68 74.1144 74.8V56.74H52.3944V74.8C52.3944 75.68 51.5944 76.12 49.9944 76.12H49.5144ZM88.5383 76.12C86.8183 76.12 85.9583 75.78 85.9583 75.1C85.9583 74.98 85.9783 74.86 86.0183 74.74C86.0583 74.58 86.0983 74.42 86.1383 74.26L100.358 34.84C100.558 34.2 101.358 33.88 102.758 33.88H104.498C105.898 33.88 106.698 34.2 106.898 34.84L121.118 74.32C121.238 74.6 121.298 74.86 121.298 75.1C121.298 75.78 120.438 76.12 118.718 76.12H118.238C117.638 76.12 117.118 76.06 116.678 75.94C116.238 75.78 115.958 75.52 115.838 75.16L112.298 65.32H94.6583L91.2383 75.16C91.1183 75.52 90.8383 75.78 90.3983 75.94C89.9583 76.06 89.4383 76.12 88.8383 76.12H88.5383ZM96.3383 60.76H110.678L104.378 42.88C104.218 42.32 104.078 41.74 103.958 41.14C103.838 40.54 103.738 39.96 103.658 39.4H103.538C103.418 39.96 103.278 40.54 103.118 41.14C102.998 41.74 102.838 42.32 102.638 42.88L96.3383 60.76ZM135.547 76.12C133.947 76.12 133.147 75.68 133.147 74.8V54.46L120.607 35.98C120.287 35.54 120.127 35.18 120.127 34.9C120.127 34.58 120.327 34.34 120.727 34.18C121.167 33.98 121.887 33.88 122.887 33.88H123.547C124.187 33.88 124.707 33.94 125.107 34.06C125.547 34.18 125.887 34.42 126.127 34.78L135.967 49.54L146.047 34.72C146.247 34.4 146.587 34.18 147.067 34.06C147.587 33.94 148.147 33.88 148.747 33.88H149.167C150.727 33.92 151.507 34.26 151.507 34.9C151.507 35.06 151.447 35.24 151.327 35.44C151.247 35.6 151.147 35.78 151.027 35.98L138.427 54.64V74.8C138.427 75.68 137.627 76.12 136.027 76.12H135.547ZM195.219 46.6445L190.707 47.2305L190.414 39.3203L185.551 39.4961L185.258 70.3164L189.359 70.1992L189.066 75.4727L176.996 75.7656L176.82 70.3164H180.277L180.219 39.7891L174.945 40.1406L175.238 47.5234H170.375L170.668 34.8086L194.633 33.9297L195.219 46.6445ZM203.895 76C202.695 76 202.095 75.4 202.095 74.2V35.8C202.095 34.6 202.695 34 203.895 34H224.835C225.635 34 226.035 34.6 226.035 35.8V36.76C226.035 37.96 225.635 38.56 224.835 38.56H207.375V52.24H223.035C223.835 52.24 224.235 52.84 224.235 54.04V55C224.235 56.2 223.835 56.8 223.035 56.8H207.375V71.44H224.895C225.695 71.44 226.095 72.04 226.095 73.24V74.2C226.095 75.4 225.695 76 224.895 76H203.895ZM232.269 76.12C230.549 76.12 229.689 75.78 229.689 75.1C229.689 74.98 229.709 74.86 229.749 74.74C229.789 74.58 229.829 74.42 229.869 74.26L244.089 34.84C244.289 34.2 245.089 33.88 246.489 33.88H248.229C249.629 33.88 250.429 34.2 250.629 34.84L264.849 74.32C264.969 74.6 265.029 74.86 265.029 75.1C265.029 75.78 264.169 76.12 262.449 76.12H261.969C261.369 76.12 260.849 76.06 260.409 75.94C259.969 75.78 259.689 75.52 259.569 75.16L256.029 65.32H238.389L234.969 75.16C234.849 75.52 234.569 75.78 234.129 75.94C233.689 76.06 233.169 76.12 232.569 76.12H232.269ZM240.069 60.76H254.409L248.109 42.88C247.949 42.32 247.809 41.74 247.689 41.14C247.569 40.54 247.469 39.96 247.389 39.4H247.269C247.149 39.96 247.009 40.54 246.849 41.14C246.729 41.74 246.569 42.32 246.369 42.88L240.069 60.76Z" fill="#4C3D3D"/>
<path d="M21.5 30C21.5 29.1716 20.8284 28.5 20 28.5C19.1716 28.5 18.5 29.1716 18.5 30H21.5ZM29.5 80.5C30.3284 80.5 31 79.8284 31 79C31 78.1716 30.3284 77.5 29.5 77.5V80.5ZM29.5 42.3262L30.6664 41.3831C30.2568 40.8765 29.567 40.6922 28.9593 40.9271L29.5 42.3262ZM29.5 51.37L29.3653 49.8761C29.2966 49.8823 29.2284 49.8932 29.1612 49.9088L29.5 51.37ZM34 38.5L35.498 38.5769C35.5364 37.8294 35.0179 37.1681 34.2829 37.0269C33.5478 36.8858 32.8212 37.3081 32.58 38.0166L34 38.5ZM18.8143 47.4667C19.6243 47.2931 20.1403 46.4957 19.9667 45.6857C19.7931 44.8757 18.9957 44.3597 18.1857 44.5333L18.8143 47.4667ZM11.5 40H10H11.5ZM20.8787 29.5909C21.2051 28.8294 20.8523 27.9476 20.0909 27.6213C19.3294 27.2949 18.4476 27.6477 18.1213 28.4091L20.8787 29.5909ZM18.5 30V71H21.5V30H18.5ZM28 80.5H29.5V77.5H28V80.5ZM18.5 71C18.5 76.2467 22.7533 80.5 28 80.5V77.5C24.4101 77.5 21.5 74.5899 21.5 71H18.5ZM28.9593 40.9271C28.0271 41.2873 26.7074 42.0473 25.5992 43.2158C24.4757 44.4003 23.5 46.0852 23.5 48.2395H26.5C26.5 47.0545 27.0243 46.0727 27.7758 45.2803C28.5426 44.4718 29.4729 43.9448 30.0407 43.7254L28.9593 40.9271ZM23.5 48.2395C23.5 49.3022 23.7407 50.2305 24.2279 50.9935C24.7168 51.7592 25.3899 52.2581 26.0881 52.5624C27.4239 53.1448 28.9056 53.0477 29.8388 52.8312L29.1612 49.9088C28.5944 50.0402 27.8261 50.0475 27.2869 49.8124C27.0476 49.708 26.877 49.5678 26.7565 49.379C26.6343 49.1877 26.5 48.8464 26.5 48.2395H23.5ZM29.6347 52.864C30.4134 52.7937 31.1276 52.3688 31.7184 51.7948C32.3255 51.2051 32.896 50.372 33.4013 49.2766C34.4102 47.0898 35.2354 43.6932 35.498 38.5769L32.502 38.4231C32.2503 43.3246 31.4684 46.3049 30.6772 48.0198C30.2826 48.8752 29.9049 49.374 29.628 49.643C29.3349 49.9278 29.2295 49.8883 29.3653 49.8761L29.6347 52.864ZM32.58 38.0166C31.7006 40.5997 30.923 41.2806 30.6742 41.4077C30.6124 41.4392 30.6453 41.4103 30.7095 41.4301C30.7359 41.4383 30.7094 41.4362 30.6664 41.3831L28.3336 43.2693C28.6656 43.68 29.1641 44.0924 29.8233 44.2963C30.5203 44.5118 31.2939 44.4596 32.0383 44.0796C33.402 43.3834 34.4994 41.6874 35.42 38.9834L32.58 38.0166ZM18.1857 44.5333C17.1446 44.7564 15.8113 44.8055 14.811 44.2911C13.9825 43.865 13 42.8509 13 40H10C10 43.6491 11.3508 45.885 13.439 46.9589C15.3554 47.9445 17.5221 47.7436 18.8143 47.4667L18.1857 44.5333ZM13 40C13 39.0346 13.2304 38.4719 13.5469 38.0306C13.9122 37.5215 14.4467 37.0873 15.2896 36.4389C16.9595 35.1543 19.2207 33.4596 20.8787 29.5909L18.1213 28.4091C16.7793 31.5404 15.0405 32.8457 13.4604 34.0611C12.6783 34.6627 11.7753 35.3535 11.1093 36.2819C10.3946 37.2781 10 38.4654 10 40H13Z" fill="#4C3D3D"/>
</svg>
