<svg width="480" height="181" viewBox="0 0 480 181" fill="none" xmlns="http://www.w3.org/2000/svg">
<g clip-path="url(#clip0_302_25)">
<rect width="480" height="181" fill="white"/>
<rect width="480" height="181" fill="white"/>
<rect x="395.706" y="103.427" width="75.2937" height="21.3519" fill="#52679F"/>
<path d="M9.29224 49.7284V48.1645C10.6092 48.7901 11.8054 49.1028 12.8809 49.1028C13.3309 49.1028 13.7616 49.0178 14.1731 48.8477C14.5847 48.6721 14.8947 48.4224 15.1032 48.0987C15.3172 47.7749 15.4242 47.4237 15.4242 47.0451C15.4242 46.6007 15.2788 46.1864 14.988 45.8023C14.6972 45.4127 14.1512 44.9847 13.3501 44.5182L12.5105 44.0326L11.6627 43.547C10.1702 42.6636 9.42394 41.5661 9.42394 40.2547C9.42394 39.2944 9.75592 38.4878 10.4199 37.8348C11.0893 37.1763 12.1319 36.8471 13.5476 36.8471C14.4585 36.8471 15.3392 36.9788 16.1897 37.2422V38.6661C15.2514 38.304 14.3378 38.1229 13.4488 38.1229C12.741 38.1229 12.1676 38.3094 11.7286 38.6826C11.2951 39.0557 11.0783 39.5057 11.0783 40.0324C11.0783 40.5537 11.2457 40.9872 11.5804 41.3329C11.9151 41.6786 12.3431 41.9969 12.8644 42.2877L13.5064 42.6745L14.3048 43.1602L14.9798 43.5552C16.379 44.4112 17.0786 45.4867 17.0786 46.7817C17.0786 47.7694 16.7192 48.6172 16.0004 49.3251C15.2816 50.0329 14.1292 50.3869 12.5434 50.3869C12.0386 50.3869 11.5557 50.343 11.0948 50.2552C10.6394 50.1728 10.0385 49.9973 9.29224 49.7284ZM19.161 37.2257H20.8237V45.613C20.8237 46.7159 20.9142 47.4704 21.0953 47.8764C21.2819 48.277 21.5645 48.5843 21.9431 48.7983C22.3272 49.0068 22.7524 49.1111 23.2189 49.1111C23.7127 49.1111 24.1517 48.9986 24.5358 48.7736C24.9254 48.5431 25.2107 48.1865 25.3918 47.7036C25.5784 47.2152 25.6717 46.3016 25.6717 44.9627V37.2257H27.2026V45.5636C27.2026 46.7543 27.0243 47.6871 26.6676 48.3621C26.3164 49.0315 25.8555 49.5363 25.2848 49.8765C24.7141 50.2167 23.9953 50.3869 23.1283 50.3869C22.3272 50.3869 21.6221 50.2387 21.013 49.9424C20.4039 49.6461 19.943 49.2016 19.6302 48.609C19.3174 48.0164 19.161 46.9464 19.161 45.399V37.2257ZM30.0505 50H28.7088V37.2257H30.3797L33.3264 45.6376L36.273 37.2257H37.9027V50H36.3718V41.8597L36.4129 40.7403H36.3718L36.0096 41.8597L34.0342 47.4484H32.3716L30.3715 41.8597L30.0505 40.7403H30.0093L30.0505 41.8597V50ZM40.1744 50H38.8328V37.2257H40.5037L43.4503 45.6376L46.397 37.2257H48.0267V50H46.4957V41.8597L46.5369 40.7403H46.4957L46.1336 41.8597L44.1582 47.4484H42.4955L40.4954 41.8597L40.1744 40.7403H40.1333L40.1744 41.8597V50ZM50.3642 50H48.7674L52.7018 37.2257H54.3891L58.3482 50H56.595L55.7225 47.1933H51.2285L50.3642 50ZM51.6235 45.9175H55.3521L53.813 41.0695L53.4508 39.7855L53.1298 41.0695L51.6235 45.9175ZM61.5088 44.5759V50H59.8462V37.2257H63.262C64.3759 37.2257 65.1962 37.3409 65.723 37.5714C66.2498 37.7964 66.6558 38.1393 66.9412 38.6003C67.232 39.0612 67.3774 39.5578 67.3774 40.09C67.3774 40.5839 67.2814 41.0805 67.0893 41.5798C66.8973 42.0792 66.6311 42.5264 66.2909 42.9215C65.9562 43.3111 65.4706 43.6814 64.8341 44.0326L68.5297 50H66.5543L63.1714 44.5759H61.5088ZM61.5088 43.2919H63.8381C64.3594 43.0065 64.7463 42.7157 64.9987 42.4194C65.2566 42.1231 65.4514 41.8076 65.5831 41.4728C65.7148 41.1381 65.7806 40.8034 65.7806 40.4687C65.7806 39.8706 65.5611 39.3959 65.1222 39.0447C64.6887 38.6881 63.8985 38.5097 62.7517 38.5097H61.5088V43.2919ZM72.9744 50V44.0902L69.1717 37.2257H71.0566L73.8963 42.2959L76.7277 37.2257H78.4315L74.637 44.0902V50H72.9744ZM91.8807 44.5759V50H90.218V37.2257H93.6338C94.7478 37.2257 95.5681 37.3409 96.0949 37.5714C96.6217 37.7964 97.0277 38.1393 97.313 38.6003C97.6039 39.0612 97.7493 39.5578 97.7493 40.09C97.7493 40.5839 97.6533 41.0805 97.4612 41.5798C97.2691 42.0792 97.003 42.5264 96.6628 42.9215C96.3281 43.3111 95.8425 43.6814 95.2059 44.0326L98.9016 50H96.9262L93.5433 44.5759H91.8807ZM91.8807 43.2919H94.21C94.7313 43.0065 95.1181 42.7157 95.3706 42.4194C95.6285 42.1231 95.8233 41.8076 95.955 41.4728C96.0866 41.1381 96.1525 40.8034 96.1525 40.4687C96.1525 39.8706 95.933 39.3959 95.494 39.0447C95.0605 38.6881 94.2704 38.5097 93.1235 38.5097H91.8807V43.2919ZM107.684 48.5925V50H100.786V37.2257H107.552V38.5097H102.449V42.8474H107.042V44.1232H102.449V48.5925H107.684ZM112.351 45.3413V50H110.688V37.2257H113.865C115.171 37.2257 116.123 37.3739 116.721 37.6702C117.32 37.961 117.778 38.389 118.096 38.9542C118.414 39.5194 118.573 40.1504 118.573 40.8473C118.573 41.6649 118.359 42.4276 117.931 43.1355C117.503 43.8433 116.905 44.3893 116.137 44.7734C115.374 45.152 114.337 45.3413 113.026 45.3413H112.351ZM112.351 44.0656H113.067C114.093 44.0656 114.856 43.9339 115.355 43.6705C115.854 43.4016 116.239 43.0175 116.507 42.5181C116.776 42.0188 116.911 41.4783 116.911 40.8967C116.911 40.1614 116.669 39.5797 116.186 39.1517C115.709 38.7237 114.762 38.5097 113.347 38.5097H112.351V44.0656ZM124.417 50.3869C122.969 50.3869 121.86 49.7778 121.092 48.5596C120.329 47.3359 119.948 45.687 119.948 43.6129C119.948 41.5442 120.329 39.9007 121.092 38.6826C121.86 37.4589 122.969 36.8471 124.417 36.8471C125.871 36.8471 126.98 37.4589 127.743 38.6826C128.505 39.9007 128.887 41.5442 128.887 43.6129C128.887 45.687 128.505 47.3359 127.743 48.5596C126.98 49.7778 125.871 50.3869 124.417 50.3869ZM124.417 49.1028C125.218 49.1028 125.885 48.6501 126.417 47.7447C126.955 46.8339 127.224 45.4566 127.224 43.6129C127.224 41.7691 126.955 40.3946 126.417 39.4892C125.885 38.5783 125.218 38.1229 124.417 38.1229C123.616 38.1229 122.947 38.5783 122.409 39.4892C121.877 40.3946 121.611 41.7691 121.611 43.6129C121.611 45.4566 121.877 46.8339 122.409 47.7447C122.947 48.6501 123.616 49.1028 124.417 49.1028ZM132.377 44.5759V50H130.714V37.2257H134.13C135.244 37.2257 136.064 37.3409 136.591 37.5714C137.117 37.7964 137.524 38.1393 137.809 38.6003C138.1 39.0612 138.245 39.5578 138.245 40.09C138.245 40.5839 138.149 41.0805 137.957 41.5798C137.765 42.0792 137.499 42.5264 137.159 42.9215C136.824 43.3111 136.338 43.6814 135.702 44.0326L139.397 50H137.422L134.039 44.5759H132.377ZM132.377 43.2919H134.706C135.227 43.0065 135.614 42.7157 135.866 42.4194C136.124 42.1231 136.319 41.8076 136.451 41.4728C136.582 41.1381 136.648 40.8034 136.648 40.4687C136.648 39.8706 136.429 39.3959 135.99 39.0447C135.556 38.6881 134.766 38.5097 133.619 38.5097H132.377V43.2919ZM143.834 50V38.6332H140.007V37.2257H149.332V38.6332H145.496V50H143.834ZM154.789 50.3869C154.421 50.3869 154.106 50.2552 153.843 49.9918C153.579 49.7284 153.447 49.4129 153.447 49.0452C153.447 48.6721 153.579 48.3566 153.843 48.0987C154.111 47.8353 154.427 47.7036 154.789 47.7036C155.151 47.7036 155.464 47.8353 155.727 48.0987C155.996 48.3566 156.131 48.6721 156.131 49.0452C156.131 49.4129 155.999 49.7284 155.736 49.9918C155.472 50.2552 155.157 50.3869 154.789 50.3869ZM154.789 43.2342C154.421 43.2342 154.106 43.1025 153.843 42.8392C153.579 42.5758 153.447 42.2602 153.447 41.8926C153.447 41.5195 153.579 41.204 153.843 40.9461C154.111 40.6827 154.427 40.551 154.789 40.551C155.151 40.551 155.464 40.6827 155.727 40.9461C155.996 41.204 156.131 41.5195 156.131 41.8926C156.131 42.2602 155.999 42.5758 155.736 42.8392C155.472 43.1025 155.157 43.2342 154.789 43.2342ZM364.462 50H362.734L366.47 43.3248L363.096 37.2257H364.981L367.425 41.6292L369.927 37.2257H371.664L368.289 43.2013L372.059 50H370.141L367.335 44.9051L364.462 50ZM374.586 50H372.857L376.594 43.3248L373.22 37.2257H375.105L377.549 41.6292L380.051 37.2257H381.788L378.413 43.2013L382.183 50H380.265L377.459 44.9051L374.586 50ZM384.364 50.3869H382.858L390.982 36.8471H392.439L384.364 50.3869ZM394.834 50H393.105L396.842 43.3248L393.468 37.2257H395.352L397.797 41.6292L400.299 37.2257H402.036L398.661 43.2013L402.431 50H400.513L397.706 44.9051L394.834 50ZM404.958 50H403.229L406.966 43.3248L403.591 37.2257H405.476L407.921 41.6292L410.423 37.2257H412.16L408.785 43.2013L412.555 50H410.637L407.83 44.9051L404.958 50ZM414.736 50.3869H413.23L421.354 36.8471H422.811L414.736 50.3869ZM425.206 50H423.477L427.214 43.3248L423.839 37.2257H425.724L428.169 41.6292L430.671 37.2257H432.408L429.033 43.2013L432.803 50H430.885L428.078 44.9051L425.206 50ZM435.33 50H433.601L437.338 43.3248L433.963 37.2257H435.848L438.293 41.6292L440.795 37.2257H442.532L439.157 43.2013L442.927 50H441.009L438.202 44.9051L435.33 50ZM445.454 50H443.725L447.462 43.3248L444.087 37.2257H445.972L448.417 41.6292L450.919 37.2257H452.656L449.281 43.2013L453.051 50H451.133L448.326 44.9051L445.454 50ZM455.578 50H453.849L457.586 43.3248L454.211 37.2257H456.096L458.541 41.6292L461.043 37.2257H462.78L459.405 43.2013L463.175 50H461.257L458.45 44.9051L455.578 50ZM17.5231 61.4894V62.7652H8.58439V61.4894H17.5231ZM17.5231 64.362V65.6377H8.58439V64.362H17.5231ZM27.6471 61.4894V62.7652H18.7083V61.4894H27.6471ZM27.6471 64.362V65.6377H18.7083V64.362H27.6471ZM37.771 61.4894V62.7652H28.8323V61.4894H37.771ZM37.771 64.362V65.6377H28.8323V64.362H37.771ZM47.895 61.4894V62.7652H38.9563V61.4894H47.895ZM47.895 64.362V65.6377H38.9563V64.362H47.895ZM58.0189 61.4894V62.7652H49.0802V61.4894H58.0189ZM58.0189 64.362V65.6377H49.0802V64.362H58.0189ZM68.1429 61.4894V62.7652H59.2042V61.4894H68.1429ZM68.1429 64.362V65.6377H59.2042V64.362H68.1429ZM78.2668 61.4894V62.7652H69.3281V61.4894H78.2668ZM78.2668 64.362V65.6377H69.3281V64.362H78.2668ZM88.3908 61.4894V62.7652H79.4521V61.4894H88.3908ZM88.3908 64.362V65.6377H79.4521V64.362H88.3908ZM98.5147 61.4894V62.7652H89.576V61.4894H98.5147ZM98.5147 64.362V65.6377H89.576V64.362H98.5147ZM108.639 61.4894V62.7652H99.7V61.4894H108.639ZM108.639 64.362V65.6377H99.7V64.362H108.639ZM118.763 61.4894V62.7652H109.824V61.4894H118.763ZM118.763 64.362V65.6377H109.824V64.362H118.763ZM128.887 61.4894V62.7652H119.948V61.4894H128.887ZM128.887 64.362V65.6377H119.948V64.362H128.887ZM139.011 61.4894V62.7652H130.072V61.4894H139.011ZM139.011 64.362V65.6377H130.072V64.362H139.011ZM149.135 61.4894V62.7652H140.196V61.4894H149.135ZM149.135 64.362V65.6377H140.196V64.362H149.135ZM159.258 61.4894V62.7652H150.32V61.4894H159.258ZM159.258 64.362V65.6377H150.32V64.362H159.258ZM169.382 61.4894V62.7652H160.444V61.4894H169.382ZM169.382 64.362V65.6377H160.444V64.362H169.382ZM179.506 61.4894V62.7652H170.568V61.4894H179.506ZM179.506 64.362V65.6377H170.568V64.362H179.506ZM189.63 61.4894V62.7652H180.692V61.4894H189.63ZM189.63 64.362V65.6377H180.692V64.362H189.63ZM199.754 61.4894V62.7652H190.816V61.4894H199.754ZM199.754 64.362V65.6377H190.816V64.362H199.754ZM209.878 61.4894V62.7652H200.94V61.4894H209.878ZM209.878 64.362V65.6377H200.94V64.362H209.878ZM220.002 61.4894V62.7652H211.064V61.4894H220.002ZM220.002 64.362V65.6377H211.064V64.362H220.002ZM230.126 61.4894V62.7652H221.187V61.4894H230.126ZM230.126 64.362V65.6377H221.187V64.362H230.126ZM240.25 61.4894V62.7652H231.311V61.4894H240.25ZM240.25 64.362V65.6377H231.311V64.362H240.25ZM250.374 61.4894V62.7652H241.435V61.4894H250.374ZM250.374 64.362V65.6377H241.435V64.362H250.374ZM260.498 61.4894V62.7652H251.559V61.4894H260.498ZM260.498 64.362V65.6377H251.559V64.362H260.498ZM270.622 61.4894V62.7652H261.683V61.4894H270.622ZM270.622 64.362V65.6377H261.683V64.362H270.622ZM280.746 61.4894V62.7652H271.807V61.4894H280.746ZM280.746 64.362V65.6377H271.807V64.362H280.746ZM290.87 61.4894V62.7652H281.931V61.4894H290.87ZM290.87 64.362V65.6377H281.931V64.362H290.87ZM300.994 61.4894V62.7652H292.055V61.4894H300.994ZM300.994 64.362V65.6377H292.055V64.362H300.994ZM311.118 61.4894V62.7652H302.179V61.4894H311.118ZM311.118 64.362V65.6377H302.179V64.362H311.118ZM321.242 61.4894V62.7652H312.303V61.4894H321.242ZM321.242 64.362V65.6377H312.303V64.362H321.242ZM331.366 61.4894V62.7652H322.427V61.4894H331.366ZM331.366 64.362V65.6377H322.427V64.362H331.366ZM341.49 61.4894V62.7652H332.551V61.4894H341.49ZM341.49 64.362V65.6377H332.551V64.362H341.49ZM351.614 61.4894V62.7652H342.675V61.4894H351.614ZM351.614 64.362V65.6377H342.675V64.362H351.614ZM361.738 61.4894V62.7652H352.799V61.4894H361.738ZM361.738 64.362V65.6377H352.799V64.362H361.738ZM371.862 61.4894V62.7652H362.923V61.4894H371.862ZM371.862 64.362V65.6377H362.923V64.362H371.862ZM381.986 61.4894V62.7652H373.047V61.4894H381.986ZM381.986 64.362V65.6377H373.047V64.362H381.986ZM392.109 61.4894V62.7652H383.171V61.4894H392.109ZM392.109 64.362V65.6377H383.171V64.362H392.109ZM402.233 61.4894V62.7652H393.295V61.4894H402.233ZM402.233 64.362V65.6377H393.295V64.362H402.233ZM412.357 61.4894V62.7652H403.419V61.4894H412.357ZM412.357 64.362V65.6377H403.419V64.362H412.357ZM422.481 61.4894V62.7652H413.543V61.4894H422.481ZM422.481 64.362V65.6377H413.543V64.362H422.481ZM432.605 61.4894V62.7652H423.667V61.4894H432.605ZM432.605 64.362V65.6377H423.667V64.362H432.605ZM442.729 61.4894V62.7652H433.791V61.4894H442.729ZM442.729 64.362V65.6377H433.791V64.362H442.729ZM452.853 61.4894V62.7652H443.914V61.4894H452.853ZM452.853 64.362V65.6377H443.914V64.362H452.853ZM462.977 61.4894V62.7652H454.038V61.4894H462.977ZM462.977 64.362V65.6377H454.038V64.362H462.977ZM11.1113 81.3413V86H9.44863V73.2257H12.6257C13.9317 73.2257 14.8837 73.3739 15.4819 73.6702C16.08 73.961 16.5381 74.389 16.8564 74.9542C17.1747 75.5194 17.3338 76.1504 17.3338 76.8473C17.3338 77.6649 17.1198 78.4276 16.6918 79.1355C16.2638 79.8433 15.6657 80.3893 14.8975 80.7734C14.1347 81.152 13.0976 81.3413 11.7862 81.3413H11.1113ZM11.1113 80.0656H11.8273C12.8535 80.0656 13.6162 79.9339 14.1155 79.6705C14.6149 79.4016 14.999 79.0175 15.2678 78.5181C15.5367 78.0188 15.6712 77.4783 15.6712 76.8967C15.6712 76.1614 15.4297 75.5797 14.9468 75.1517C14.4695 74.7237 13.5229 74.5097 12.1072 74.5097H11.1113V80.0656ZM25.4412 83.9341C24.9748 84.7023 24.4123 85.2812 23.7539 85.6708C23.1009 86.0604 22.5 86.2552 21.9513 86.2552C21.1831 86.2552 20.4917 85.9232 19.8771 85.2592C19.268 84.5953 18.9635 83.5884 18.9635 82.2385C18.9635 81.174 19.1665 80.2247 19.5726 79.3906C19.9786 78.5511 20.5219 77.8899 21.2023 77.407C21.8827 76.9186 22.725 76.6744 23.7292 76.6744C24.02 76.6744 24.459 76.7046 25.0461 76.765C25.1339 76.776 25.2656 76.7897 25.4412 76.8061H26.9804V83.3003C26.9804 84.4087 27.0956 85.3086 27.3261 86H25.7293C25.6085 85.4952 25.5125 84.8065 25.4412 83.9341ZM25.4412 82.115V78.1725C24.898 78.0298 24.3931 77.9585 23.9267 77.9585C22.9829 77.9585 22.1955 78.3234 21.5645 79.0532C20.9389 79.783 20.6261 80.7761 20.6261 82.0327C20.6261 82.9436 20.7962 83.6323 21.1364 84.0987C21.4821 84.5596 21.8745 84.7901 22.3135 84.7901C22.7909 84.7901 23.3176 84.5486 23.8938 84.0657C24.4699 83.5829 24.9857 82.9326 25.4412 82.115ZM32.9066 85.6296L28.6595 76.8061H30.3468L33.7297 83.7036L36.5611 76.8061H38.1002L34.5363 85.3498C33.7845 87.1551 33.0685 88.354 32.388 88.9466C31.7131 89.5393 30.8379 89.8356 29.7624 89.8356C29.296 89.8356 28.8789 89.7944 28.5113 89.7121V88.3623C28.9338 88.494 29.3371 88.5598 29.7212 88.5598C30.2151 88.5598 30.6541 88.4638 31.0382 88.2717C31.4223 88.0797 31.7735 87.7395 32.0917 87.2511C32.41 86.7627 32.635 86.3402 32.7667 85.9835L32.9066 85.6296ZM52.7183 86V74.6332H48.8909V73.2257H58.2165V74.6332H54.3809V86H52.7183ZM63.2784 85.6296L59.0313 76.8061H60.7186L64.1015 83.7036L66.9329 76.8061H68.4721L64.9082 85.3498C64.1564 87.1551 63.4403 88.354 62.7599 88.9466C62.085 89.5393 61.2098 89.8356 60.1343 89.8356C59.6678 89.8356 59.2508 89.7944 58.8832 89.7121V88.3623C59.3057 88.494 59.709 88.5598 60.0931 88.5598C60.587 88.5598 61.0259 88.4638 61.41 88.2717C61.7941 88.0797 62.1453 87.7395 62.4636 87.2511C62.7818 86.7627 63.0068 86.3402 63.1385 85.9835L63.2784 85.6296ZM71.4352 78.8721C71.9071 78.1039 72.4696 77.525 73.1226 77.1354C73.7755 76.7458 74.3764 76.551 74.9251 76.551C75.6933 76.551 76.3847 76.883 76.9993 77.5469C77.6139 78.2109 77.9211 79.2178 77.9211 80.5676C77.9211 81.6322 77.7154 82.5842 77.3038 83.4237C76.8978 84.2578 76.3545 84.919 75.6741 85.4074C74.9937 85.8903 74.1514 86.1317 73.1472 86.1317C72.8619 86.1317 72.4229 86.1015 71.8303 86.0412C71.7425 86.0302 71.6108 86.0165 71.4352 86V89.5722H69.9043V76.8061H71.4352V78.8721ZM71.4352 80.6911V84.6337C71.9894 84.7763 72.4998 84.8477 72.9662 84.8477C73.8935 84.8477 74.6727 84.4855 75.3037 83.7612C75.9403 83.0314 76.2585 82.0355 76.2585 80.7734C76.2585 79.857 76.0857 79.1684 75.74 78.7075C75.3943 78.2465 75.0019 78.0161 74.563 78.0161C74.0856 78.0161 73.5588 78.2575 72.9826 78.7404C72.412 79.2233 71.8962 79.8735 71.4352 80.6911ZM87.7899 85.3909C86.5663 85.9726 85.4085 86.2634 84.3165 86.2634C83.4879 86.2634 82.7472 86.0576 82.0942 85.6461C81.4412 85.2345 80.9172 84.6474 80.5221 83.8847C80.1325 83.1165 79.9377 82.2961 79.9377 81.4236C79.9377 80.5841 80.1243 79.7775 80.4974 79.0038C80.8705 78.2301 81.3918 77.6292 82.0613 77.2012C82.7307 76.7677 83.477 76.551 84.3001 76.551C85.392 76.551 86.2672 76.9406 86.9257 77.7198C87.5897 78.4989 87.9216 79.7006 87.9216 81.3249V81.6541H81.5839C81.5839 82.2906 81.7156 82.8723 81.979 83.399C82.2478 83.9258 82.599 84.3209 83.0325 84.5843C83.466 84.8477 83.9598 84.9794 84.5141 84.9794C85.5018 84.9794 86.5937 84.6501 87.7899 83.9917V85.3909ZM81.6744 80.51H86.259V80.2878C86.259 79.536 86.0752 78.9379 85.7075 78.4935C85.3399 78.049 84.8488 77.8268 84.2342 77.8268C83.6142 77.8268 83.0764 78.0545 82.621 78.5099C82.171 78.9599 81.8555 79.6266 81.6744 80.51ZM113.462 86V74.6332H109.635V73.2257H118.96V74.6332H115.125V86H113.462ZM126.681 83.9341C126.214 84.7023 125.652 85.2812 124.993 85.6708C124.34 86.0604 123.74 86.2552 123.191 86.2552C122.423 86.2552 121.731 85.9232 121.117 85.2592C120.508 84.5953 120.203 83.5884 120.203 82.2385C120.203 81.174 120.406 80.2247 120.812 79.3906C121.218 78.5511 121.761 77.8899 122.442 77.407C123.122 76.9186 123.965 76.6744 124.969 76.6744C125.26 76.6744 125.699 76.7046 126.286 76.765C126.373 76.776 126.505 76.7897 126.681 76.8061H128.22V83.3003C128.22 84.4087 128.335 85.3086 128.566 86H126.969C126.848 85.4952 126.752 84.8065 126.681 83.9341ZM126.681 82.115V78.1725C126.138 78.0298 125.633 77.9585 125.166 77.9585C124.222 77.9585 123.435 78.3234 122.804 79.0532C122.178 79.783 121.866 80.7761 121.866 82.0327C121.866 82.9436 122.036 83.6323 122.376 84.0987C122.722 84.5596 123.114 84.7901 123.553 84.7901C124.03 84.7901 124.557 84.5486 125.133 84.0657C125.71 83.5829 126.225 82.9326 126.681 82.115ZM131.175 86V72.7154H132.706V81.0615L137.126 76.8061H139.167L134.755 81.0615L139.282 86H137.175L132.706 81.0615V86H131.175ZM148.534 85.3909C147.31 85.9726 146.152 86.2634 145.06 86.2634C144.232 86.2634 143.491 86.0576 142.838 85.6461C142.185 85.2345 141.661 84.6474 141.266 83.8847C140.876 83.1165 140.681 82.2961 140.681 81.4236C140.681 80.5841 140.868 79.7775 141.241 79.0038C141.614 78.2301 142.136 77.6292 142.805 77.2012C143.474 76.7677 144.221 76.551 145.044 76.551C146.136 76.551 147.011 76.9406 147.669 77.7198C148.333 78.4989 148.665 79.7006 148.665 81.3249V81.6541H142.328C142.328 82.2906 142.459 82.8723 142.723 83.399C142.992 83.9258 143.343 84.3209 143.776 84.5843C144.21 84.8477 144.704 84.9794 145.258 84.9794C146.245 84.9794 147.337 84.6501 148.534 83.9917V85.3909ZM142.418 80.51H147.003V80.2878C147.003 79.536 146.819 78.9379 146.451 78.4935C146.084 78.049 145.593 77.8268 144.978 77.8268C144.358 77.8268 143.82 78.0545 143.365 78.5099C142.915 78.9599 142.599 79.6266 142.418 80.51ZM164.913 86.3869C163.464 86.3869 162.356 85.7778 161.588 84.5596C160.825 83.3359 160.444 81.687 160.444 79.6129C160.444 77.5442 160.825 75.9007 161.588 74.6826C162.356 73.4589 163.464 72.8471 164.913 72.8471C166.367 72.8471 167.476 73.4589 168.238 74.6826C169.001 75.9007 169.382 77.5442 169.382 79.6129C169.382 81.687 169.001 83.3359 168.238 84.5596C167.476 85.7778 166.367 86.3869 164.913 86.3869ZM164.913 85.1028C165.714 85.1028 166.381 84.6501 166.913 83.7447C167.451 82.8339 167.72 81.4566 167.72 79.6129C167.72 77.7691 167.451 76.3946 166.913 75.4892C166.381 74.5783 165.714 74.1229 164.913 74.1229C164.112 74.1229 163.442 74.5783 162.905 75.4892C162.372 76.3946 162.106 77.7691 162.106 79.6129C162.106 81.4566 162.372 82.8339 162.905 83.7447C163.442 84.6501 164.112 85.1028 164.913 85.1028ZM178.823 76.8061V86H177.292V83.9834C176.798 84.7407 176.25 85.3086 175.646 85.6872C175.043 86.0658 174.439 86.2552 173.835 86.2552C173.298 86.2552 172.804 86.1125 172.354 85.8272C171.909 85.5363 171.599 85.1577 171.424 84.6913C171.248 84.2194 171.16 83.303 171.16 81.9422V76.8061H172.691V82.1315C172.691 83.0149 172.732 83.5993 172.815 83.8847C172.903 84.1645 173.059 84.395 173.284 84.5761C173.514 84.7571 173.761 84.8477 174.025 84.8477C174.562 84.8477 175.139 84.5953 175.753 84.0904C176.373 83.5801 176.886 82.9381 177.292 82.1644V76.8061H178.823ZM189.071 85.6296C188.352 85.9314 187.831 86.1097 187.507 86.1646C187.183 86.225 186.87 86.2552 186.568 86.2552C185.926 86.2552 185.339 86.1317 184.807 85.8848C184.275 85.6378 183.871 85.2729 183.597 84.7901C183.328 84.3072 183.194 83.5609 183.194 82.5513V78.8474H180.897V77.5716H183.194V73.8677H184.725V77.5716H188.816V78.8474H184.725V82.5266C184.725 83.2674 184.813 83.7914 184.988 84.0987C185.164 84.4005 185.397 84.6227 185.688 84.7654C185.984 84.908 186.333 84.9794 186.733 84.9794C187.474 84.9794 188.253 84.7462 189.071 84.2798V85.6296ZM241.888 86V73.2257H243.551V78.7239H248.275V73.2257H249.93V86H248.275V79.9997H243.551V86H241.888ZM259.543 84.5925V86H252.646V73.2257H259.412V74.5097H254.308V78.8474H258.901V80.1232H254.308V84.5925H259.543ZM263.988 80.5759V86H262.325V73.2257H265.741C266.855 73.2257 267.675 73.3409 268.202 73.5714C268.729 73.7964 269.135 74.1393 269.42 74.6003C269.711 75.0612 269.857 75.5578 269.857 76.09C269.857 76.5839 269.76 77.0805 269.568 77.5798C269.376 78.0792 269.11 78.5264 268.77 78.9215C268.435 79.3111 267.95 79.6814 267.313 80.0326L271.009 86H269.033L265.651 80.5759H263.988ZM263.988 79.2919H266.317C266.839 79.0065 267.225 78.7157 267.478 78.4194C267.736 78.1231 267.931 77.8076 268.062 77.4728C268.194 77.1381 268.26 76.8034 268.26 76.4687C268.26 75.8706 268.04 75.3959 267.601 75.0447C267.168 74.6881 266.378 74.5097 265.231 74.5097H263.988V79.2919ZM279.791 84.5925V86H272.894V73.2257H279.659V74.5097H274.556V78.8474H279.149V80.1232H274.556V84.5925H279.791ZM312.994 86V73.2257H316.023C317.417 73.2257 318.452 73.4699 319.126 73.9583C319.807 74.4411 320.317 75.1737 320.657 76.1559C320.998 77.1381 321.168 78.3014 321.168 79.6458C321.168 80.9188 320.987 82.0382 320.624 83.004C320.268 83.9642 319.76 84.705 319.102 85.2263C318.443 85.7421 317.417 86 316.023 86H312.994ZM314.657 84.5925H315.768C316.893 84.5925 317.694 84.3922 318.172 83.9917C318.655 83.5911 318.997 83.0369 319.201 82.329C319.409 81.6157 319.513 80.6335 319.513 79.3824C319.513 78.1587 319.393 77.2177 319.151 76.5592C318.91 75.9007 318.564 75.3959 318.114 75.0447C317.664 74.6881 316.926 74.5097 315.9 74.5097H314.657V84.5925ZM330.411 84.5925V86H323.513V73.2257H330.279V74.5097H325.176V78.8474H329.769V80.1232H325.176V84.5925H330.411ZM340.667 84.5925V86H333.769V73.2257H335.432V84.5925H340.667ZM343.506 86V84.7242H346.313V74.5097H343.506V73.2257H350.782V74.5097H347.976V84.7242H350.782V86H343.506ZM360.47 73.2257H362.067L358.132 86H356.445L352.486 73.2257H354.239L357.013 82.148L357.375 83.4484L357.696 82.1562L360.47 73.2257ZM370.907 84.5925V86H364.009V73.2257H370.775V74.5097H365.672V78.8474H370.265V80.1232H365.672V84.5925H370.907ZM375.351 80.5759V86H373.689V73.2257H377.105C378.219 73.2257 379.039 73.3409 379.566 73.5714C380.092 73.7964 380.498 74.1393 380.784 74.6003C381.075 75.0612 381.22 75.5578 381.22 76.09C381.22 76.5839 381.124 77.0805 380.932 77.5798C380.74 78.0792 380.474 78.5264 380.134 78.9215C379.799 79.3111 379.313 79.6814 378.677 80.0326L382.372 86H380.397L377.014 80.5759H375.351ZM375.351 79.2919H377.681C378.202 79.0065 378.589 78.7157 378.841 78.4194C379.099 78.1231 379.294 77.8076 379.426 77.4728C379.557 77.1381 379.623 76.8034 379.623 76.4687C379.623 75.8706 379.404 75.3959 378.965 75.0447C378.531 74.6881 377.741 74.5097 376.594 74.5097H375.351V79.2919ZM386.817 86V80.0902L383.014 73.2257H384.899L387.739 78.2959L390.57 73.2257H392.274L388.48 80.0902V86H386.817ZM417.181 86V74.6332H413.353V73.2257H422.679V74.6332H418.843V86H417.181ZM428.136 86.3869C426.687 86.3869 425.579 85.7778 424.811 84.5596C424.048 83.3359 423.667 81.687 423.667 79.6129C423.667 77.5442 424.048 75.9007 424.811 74.6826C425.579 73.4589 426.687 72.8471 428.136 72.8471C429.59 72.8471 430.698 73.4589 431.461 74.6826C432.224 75.9007 432.605 77.5442 432.605 79.6129C432.605 81.687 432.224 83.3359 431.461 84.5596C430.698 85.7778 429.59 86.3869 428.136 86.3869ZM428.136 85.1028C428.937 85.1028 429.604 84.6501 430.136 83.7447C430.674 82.8339 430.943 81.4566 430.943 79.6129C430.943 77.7691 430.674 76.3946 430.136 75.4892C429.604 74.5783 428.937 74.1229 428.136 74.1229C427.335 74.1229 426.665 74.5783 426.128 75.4892C425.595 76.3946 425.329 77.7691 425.329 79.6129C425.329 81.4566 425.595 82.8339 426.128 83.7447C426.665 84.6501 427.335 85.1028 428.136 85.1028ZM437.429 86V74.6332H433.601V73.2257H442.927V74.6332H439.091V86H437.429ZM445.199 86H443.602L447.536 73.2257H449.223L453.182 86H451.429L450.557 83.1933H446.063L445.199 86ZM446.458 81.9175H450.186L448.647 77.0695L448.285 75.7855L447.964 77.0695L446.458 81.9175ZM462.154 84.5925V86H455.257V73.2257H456.919V84.5925H462.154ZM9.8684 99.4648V98.189H16.2556V99.4648H9.8684ZM19.9924 99.4648V98.189H26.3795V99.4648H19.9924ZM30.1163 99.4648V98.189H36.5035V99.4648H30.1163ZM40.2403 99.4648V98.189H46.6274V99.4648H40.2403ZM50.3642 99.4648V98.189H56.7514V99.4648H50.3642ZM60.4882 99.4648V98.189H66.8753V99.4648H60.4882ZM70.6121 99.4648V98.189H76.9993V99.4648H70.6121ZM80.7361 99.4648V98.189H87.1232V99.4648H80.7361ZM111.108 99.4648V98.189H117.495V99.4648H111.108ZM121.232 99.4648V98.189H127.619V99.4648H121.232ZM131.356 99.4648V98.189H137.743V99.4648H131.356ZM141.48 99.4648V98.189H147.867V99.4648H141.48ZM151.604 99.4648V98.189H157.991V99.4648H151.604ZM161.728 99.4648V98.189H168.115V99.4648H161.728ZM171.852 99.4648V98.189H178.239V99.4648H171.852ZM181.976 99.4648V98.189H188.363V99.4648H181.976ZM192.1 99.4648V98.189H198.487V99.4648H192.1ZM222.471 99.4648V98.189H228.859V99.4648H222.471ZM232.595 99.4648V98.189H238.983V99.4648H232.595ZM242.719 99.4648V98.189H249.107V99.4648H242.719ZM252.843 99.4648V98.189H259.23V99.4648H252.843ZM262.967 99.4648V98.189H269.354V99.4648H262.967ZM273.091 99.4648V98.189H279.478V99.4648H273.091ZM303.463 99.4648V98.189H309.85V99.4648H303.463ZM313.587 99.4648V98.189H319.974V99.4648H313.587ZM323.711 99.4648V98.189H330.098V99.4648H323.711ZM333.835 99.4648V98.189H340.222V99.4648H333.835ZM343.959 99.4648V98.189H350.346V99.4648H343.959ZM354.083 99.4648V98.189H360.47V99.4648H354.083ZM364.207 99.4648V98.189H370.594V99.4648H364.207ZM374.331 99.4648V98.189H380.718V99.4648H374.331ZM384.455 99.4648V98.189H390.842V99.4648H384.455ZM404.703 99.4648V98.189H411.09V99.4648H404.703ZM414.827 99.4648V98.189H421.214V99.4648H414.827ZM424.951 99.4648V98.189H431.338V99.4648H424.951ZM435.075 99.4648V98.189H441.462V99.4648H435.075ZM445.199 99.4648V98.189H451.586V99.4648H445.199ZM455.322 99.4648V98.189H461.71V99.4648H455.322ZM16.9552 121.852C16.0004 122.209 15.1444 122.387 14.3871 122.387C13.3885 122.387 12.4694 122.121 11.6298 121.588C10.7903 121.051 10.1373 120.255 9.67086 119.202C9.20445 118.142 8.97124 116.946 8.97124 115.613C8.97124 114.29 9.20171 113.102 9.66263 112.049C10.1236 110.995 10.7738 110.197 11.6133 109.654C12.4529 109.11 13.3775 108.839 14.3871 108.839C15.1444 108.839 16.0004 109.017 16.9552 109.374V110.888C16.0717 110.378 15.1938 110.123 14.3213 110.123C13.6628 110.123 13.0592 110.348 12.5105 110.798C11.9673 111.248 11.5283 111.909 11.1936 112.781C10.8589 113.648 10.6915 114.592 10.6915 115.613C10.6915 116.65 10.8643 117.607 11.21 118.485C11.5557 119.363 11.9975 120.022 12.5352 120.461C13.073 120.894 13.6683 121.111 14.3213 121.111C15.1883 121.111 16.0662 120.856 16.9552 120.346V121.852ZM19.9924 122H18.3956L22.3299 109.226H24.0173L27.9763 122H26.2231L25.3506 119.193H20.8566L19.9924 122ZM21.2517 117.917H24.9803L23.4411 113.07L23.0789 111.786L22.7579 113.07L21.2517 117.917ZM29.5402 121.728V120.165C30.8571 120.79 32.0533 121.103 33.1288 121.103C33.5788 121.103 34.0095 121.018 34.4211 120.848C34.8326 120.672 35.1426 120.422 35.3511 120.099C35.5651 119.775 35.6721 119.424 35.6721 119.045C35.6721 118.601 35.5267 118.186 35.2359 117.802C34.9451 117.413 34.3991 116.985 33.598 116.518L32.7584 116.033L31.9106 115.547C30.4181 114.664 29.6718 113.566 29.6718 112.255C29.6718 111.294 30.0038 110.488 30.6678 109.835C31.3372 109.176 32.3798 108.847 33.7955 108.847C34.7064 108.847 35.5871 108.979 36.4376 109.242V110.666C35.4993 110.304 34.5857 110.123 33.6967 110.123C32.9889 110.123 32.4155 110.309 31.9765 110.683C31.543 111.056 31.3263 111.506 31.3263 112.032C31.3263 112.554 31.4936 112.987 31.8283 113.333C32.1631 113.679 32.5911 113.997 33.1123 114.288L33.7544 114.675L34.5527 115.16L35.2277 115.555C36.6269 116.411 37.3265 117.487 37.3265 118.782C37.3265 119.769 36.9671 120.617 36.2483 121.325C35.5295 122.033 34.3772 122.387 32.7913 122.387C32.2865 122.387 31.8036 122.343 31.3427 122.255C30.8873 122.173 30.2864 121.997 29.5402 121.728ZM39.409 122V109.226H41.0716V114.724H45.7961V109.226H47.4505V122H45.7961V116H41.0716V122H39.409ZM141.735 122H140.007L143.743 115.325L140.369 109.226H142.254L144.698 113.629L147.2 109.226H148.937L145.562 115.201L149.332 122H147.414L144.608 116.905L141.735 122ZM151.859 122H150.13L153.867 115.325L150.493 109.226H152.377L154.822 113.629L157.324 109.226H159.061L155.686 115.201L159.456 122H157.538L154.732 116.905L151.859 122ZM164.913 122.387C164.545 122.387 164.23 122.255 163.967 121.992C163.703 121.728 163.571 121.413 163.571 121.045C163.571 120.672 163.703 120.357 163.967 120.099C164.235 119.835 164.551 119.704 164.913 119.704C165.275 119.704 165.588 119.835 165.851 120.099C166.12 120.357 166.255 120.672 166.255 121.045C166.255 121.413 166.123 121.728 165.86 121.992C165.596 122.255 165.281 122.387 164.913 122.387ZM172.107 122H170.378L174.115 115.325L170.741 109.226H172.625L175.07 113.629L177.572 109.226H179.309L175.934 115.201L179.704 122H177.786L174.979 116.905L172.107 122ZM182.231 122H180.502L184.239 115.325L180.864 109.226H182.749L185.194 113.629L187.696 109.226H189.433L186.058 115.201L189.828 122H187.91L185.103 116.905L182.231 122ZM232.851 122H231.122L234.859 115.325L231.484 109.226H233.369L235.814 113.629L238.316 109.226H240.053L236.678 115.201L240.448 122H238.53L235.723 116.905L232.851 122ZM242.975 122H241.246L244.983 115.325L241.608 109.226H243.493L245.938 113.629L248.44 109.226H250.177L246.802 115.201L250.572 122H248.654L245.847 116.905L242.975 122ZM256.029 122.387C255.661 122.387 255.346 122.255 255.082 121.992C254.819 121.728 254.687 121.413 254.687 121.045C254.687 120.672 254.819 120.357 255.082 120.099C255.351 119.835 255.667 119.704 256.029 119.704C256.391 119.704 256.704 119.835 256.967 120.099C257.236 120.357 257.37 120.672 257.37 121.045C257.37 121.413 257.239 121.728 256.975 121.992C256.712 122.255 256.396 122.387 256.029 122.387ZM263.222 122H261.494L265.231 115.325L261.856 109.226H263.741L266.186 113.629L268.688 109.226H270.424L267.05 115.201L270.82 122H268.902L266.095 116.905L263.222 122ZM273.346 122H271.618L275.355 115.325L271.98 109.226H273.865L276.31 113.629L278.812 109.226H280.548L277.174 115.201L280.943 122H279.026L276.219 116.905L273.346 122ZM344.214 122H342.486L346.222 115.325L342.848 109.226H344.733L347.177 113.629L349.679 109.226H351.416L348.041 115.201L351.811 122H349.893L347.087 116.905L344.214 122ZM357.268 122.387C356.901 122.387 356.585 122.255 356.322 121.992C356.058 121.728 355.927 121.413 355.927 121.045C355.927 120.672 356.058 120.357 356.322 120.099C356.591 119.835 356.906 119.704 357.268 119.704C357.63 119.704 357.943 119.835 358.207 120.099C358.475 120.357 358.61 120.672 358.61 121.045C358.61 121.413 358.478 121.728 358.215 121.992C357.951 122.255 357.636 122.387 357.268 122.387ZM364.462 122H362.734L366.47 115.325L363.096 109.226H364.981L367.425 113.629L369.927 109.226H371.664L368.289 115.201L372.059 122H370.141L367.335 116.905L364.462 122ZM374.586 122H372.857L376.594 115.325L373.22 109.226H375.105L377.549 113.629L380.051 109.226H381.788L378.413 115.201L382.183 122H380.265L377.459 116.905L374.586 122ZM16.9552 139.852C16.0004 140.209 15.1444 140.387 14.3871 140.387C13.3885 140.387 12.4694 140.121 11.6298 139.588C10.7903 139.051 10.1373 138.255 9.67086 137.202C9.20445 136.142 8.97124 134.946 8.97124 133.613C8.97124 132.29 9.20171 131.102 9.66263 130.049C10.1236 128.995 10.7738 128.197 11.6133 127.654C12.4529 127.11 13.3775 126.839 14.3871 126.839C15.1444 126.839 16.0004 127.017 16.9552 127.374V128.888C16.0717 128.378 15.1938 128.123 14.3213 128.123C13.6628 128.123 13.0592 128.348 12.5105 128.798C11.9673 129.248 11.5283 129.909 11.1936 130.781C10.8589 131.648 10.6915 132.592 10.6915 133.613C10.6915 134.65 10.8643 135.607 11.21 136.485C11.5557 137.363 11.9975 138.022 12.5352 138.461C13.073 138.894 13.6683 139.111 14.3213 139.111C15.1883 139.111 16.0662 138.856 16.9552 138.346V139.852ZM19.161 140V127.226H20.8237V132.724H25.5482V127.226H27.2026V140H25.5482V134H20.8237V140H19.161ZM30.1163 140H28.5195L32.4539 127.226H34.1412L38.1002 140H36.3471L35.4746 137.193H30.9806L30.1163 140ZM31.3756 135.917H35.1042L33.565 131.07L33.2029 129.786L32.8819 131.07L31.3756 135.917ZM41.2609 134.576V140H39.5983V127.226H43.0141C44.128 127.226 44.9483 127.341 45.4751 127.571C46.0019 127.796 46.4079 128.139 46.6933 128.6C46.9841 129.061 47.1295 129.558 47.1295 130.09C47.1295 130.584 47.0335 131.08 46.8414 131.58C46.6494 132.079 46.3832 132.526 46.043 132.921C45.7083 133.311 45.2227 133.681 44.5862 134.033L48.2818 140H46.3064L42.9235 134.576H41.2609ZM41.2609 133.292H43.5902C44.1115 133.007 44.4984 132.716 44.7508 132.419C45.0087 132.123 45.2035 131.808 45.3352 131.473C45.4669 131.138 45.5327 130.803 45.5327 130.469C45.5327 129.871 45.3132 129.396 44.8742 129.045C44.4408 128.688 43.6506 128.51 42.5038 128.51H41.2609V133.292ZM57.451 139.992C56.5511 140.255 55.7253 140.387 54.9735 140.387C53.909 140.387 52.9597 140.123 52.1256 139.597C51.2971 139.07 50.6468 138.277 50.1749 137.218C49.703 136.153 49.4671 134.952 49.4671 133.613C49.4671 132.29 49.6975 131.102 50.1585 130.049C50.6194 128.995 51.2696 128.197 52.1092 127.654C52.9487 127.11 53.8706 126.839 54.8747 126.839C55.632 126.839 56.488 127.017 57.4428 127.374V128.888C56.5593 128.378 55.6814 128.123 54.8089 128.123C54.1504 128.123 53.5468 128.348 52.9981 128.798C52.4549 129.248 52.0159 129.909 51.6812 130.781C51.3519 131.648 51.1873 132.598 51.1873 133.629C51.1873 135.012 51.5028 136.271 52.1339 137.407C52.7649 138.543 53.7608 139.111 55.1217 139.111C55.2973 139.111 55.5195 139.097 55.7884 139.07V134.954H54.5126V133.679H57.451V139.992ZM67.1881 138.593V140H60.2906V127.226H67.0564V128.51H61.9533V132.847H66.5461V134.123H61.9533V138.593H67.1881ZM131.611 140H129.883L133.619 133.325L130.245 127.226H132.13L134.574 131.629L137.076 127.226H138.813L135.438 133.201L139.208 140H137.29L134.484 134.905L131.611 140ZM141.735 140H140.007L143.743 133.325L140.369 127.226H142.254L144.698 131.629L147.2 127.226H148.937L145.562 133.201L149.332 140H147.414L144.608 134.905L141.735 140ZM151.859 140H150.13L153.867 133.325L150.493 127.226H152.377L154.822 131.629L157.324 127.226H159.061L155.686 133.201L159.456 140H157.538L154.732 134.905L151.859 140ZM164.913 140.387C164.545 140.387 164.23 140.255 163.967 139.992C163.703 139.728 163.571 139.413 163.571 139.045C163.571 138.672 163.703 138.357 163.967 138.099C164.235 137.835 164.551 137.704 164.913 137.704C165.275 137.704 165.588 137.835 165.851 138.099C166.12 138.357 166.255 138.672 166.255 139.045C166.255 139.413 166.123 139.728 165.86 139.992C165.596 140.255 165.281 140.387 164.913 140.387ZM172.107 140H170.378L174.115 133.325L170.741 127.226H172.625L175.07 131.629L177.572 127.226H179.309L175.934 133.201L179.704 140H177.786L174.979 134.905L172.107 140ZM182.231 140H180.502L184.239 133.325L180.864 127.226H182.749L185.194 131.629L187.696 127.226H189.433L186.058 133.201L189.828 140H187.91L185.103 134.905L182.231 140ZM232.851 140H231.122L234.859 133.325L231.484 127.226H233.369L235.814 131.629L238.316 127.226H240.053L236.678 133.201L240.448 140H238.53L235.723 134.905L232.851 140ZM242.975 140H241.246L244.983 133.325L241.608 127.226H243.493L245.938 131.629L248.44 127.226H250.177L246.802 133.201L250.572 140H248.654L245.847 134.905L242.975 140ZM256.029 140.387C255.661 140.387 255.346 140.255 255.082 139.992C254.819 139.728 254.687 139.413 254.687 139.045C254.687 138.672 254.819 138.357 255.082 138.099C255.351 137.835 255.667 137.704 256.029 137.704C256.391 137.704 256.704 137.835 256.967 138.099C257.236 138.357 257.37 138.672 257.37 139.045C257.37 139.413 257.239 139.728 256.975 139.992C256.712 140.255 256.396 140.387 256.029 140.387ZM263.222 140H261.494L265.231 133.325L261.856 127.226H263.741L266.186 131.629L268.688 127.226H270.424L267.05 133.201L270.82 140H268.902L266.095 134.905L263.222 140ZM273.346 140H271.618L275.355 133.325L271.98 127.226H273.865L276.31 131.629L278.812 127.226H280.548L277.174 133.201L280.943 140H279.026L276.219 134.905L273.346 140ZM344.214 140H342.486L346.222 133.325L342.848 127.226H344.733L347.177 131.629L349.679 127.226H351.416L348.041 133.201L351.811 140H349.893L347.087 134.905L344.214 140ZM357.268 140.387C356.901 140.387 356.585 140.255 356.322 139.992C356.058 139.728 355.927 139.413 355.927 139.045C355.927 138.672 356.058 138.357 356.322 138.099C356.591 137.835 356.906 137.704 357.268 137.704C357.63 137.704 357.943 137.835 358.207 138.099C358.475 138.357 358.61 138.672 358.61 139.045C358.61 139.413 358.478 139.728 358.215 139.992C357.951 140.255 357.636 140.387 357.268 140.387ZM364.462 140H362.734L366.47 133.325L363.096 127.226H364.981L367.425 131.629L369.927 127.226H371.664L368.289 133.201L372.059 140H370.141L367.335 134.905L364.462 140ZM374.586 140H372.857L376.594 133.325L373.22 127.226H375.105L377.549 131.629L380.051 127.226H381.788L378.413 133.201L382.183 140H380.265L377.459 134.905L374.586 140ZM404.958 140H403.229L406.966 133.325L403.591 127.226H405.476L407.921 131.629L410.423 127.226H412.16L408.785 133.201L412.555 140H410.637L407.83 134.905L404.958 140ZM415.082 140H413.353L417.09 133.325L413.715 127.226H415.6L418.045 131.629L420.547 127.226H422.284L418.909 133.201L422.679 140H420.761L417.954 134.905L415.082 140ZM425.206 140H423.477L427.214 133.325L423.839 127.226H425.724L428.169 131.629L430.671 127.226H432.408L429.033 133.201L432.803 140H430.885L428.078 134.905L425.206 140ZM438.26 140.387C437.892 140.387 437.577 140.255 437.313 139.992C437.05 139.728 436.918 139.413 436.918 139.045C436.918 138.672 437.05 138.357 437.313 138.099C437.582 137.835 437.898 137.704 438.26 137.704C438.622 137.704 438.935 137.835 439.198 138.099C439.467 138.357 439.602 138.672 439.602 139.045C439.602 139.413 439.47 139.728 439.206 139.992C438.943 140.255 438.628 140.387 438.26 140.387ZM445.454 140H443.725L447.462 133.325L444.087 127.226H445.972L448.417 131.629L450.919 127.226H452.656L449.281 133.201L453.051 140H451.133L448.326 134.905L445.454 140ZM455.578 140H453.849L457.586 133.325L454.211 127.226H456.096L458.541 131.629L461.043 127.226H462.78L459.405 133.201L463.175 140H461.257L458.45 134.905L455.578 140Z" fill="black"/>
<path d="M407.509 120.724V110.864C407.048 111.231 406.601 111.544 406.168 111.802C405.734 112.06 405.139 112.323 404.382 112.592V111.209C405.583 110.699 406.626 110.038 407.509 109.226H409.04V120.724H412.11V122H404.382V120.724H407.509ZM418.012 108.847C419.466 108.847 420.575 109.459 421.337 110.683C422.1 111.901 422.481 113.544 422.481 115.613C422.481 117.687 422.1 119.336 421.337 120.56C420.575 121.778 419.466 122.387 418.012 122.387C416.563 122.387 415.455 121.778 414.687 120.56C413.924 119.336 413.543 117.687 413.543 115.613C413.543 113.544 413.924 111.901 414.687 110.683C415.455 109.459 416.563 108.847 418.012 108.847ZM415.518 118.345L419.938 111.423C419.658 110.913 419.354 110.57 419.024 110.394C418.701 110.213 418.363 110.123 418.012 110.123C417.096 110.123 416.399 110.633 415.921 111.654C415.444 112.669 415.205 113.958 415.205 115.522C415.205 115.879 415.216 116.263 415.238 116.675C415.26 117.086 415.353 117.643 415.518 118.345ZM420.489 112.946L416.102 119.909C416.338 120.31 416.61 120.612 416.917 120.815C417.225 121.012 417.568 121.111 417.946 121.111C418.989 121.111 419.729 120.529 420.168 119.366C420.607 118.197 420.827 116.902 420.827 115.481C420.827 114.603 420.714 113.758 420.489 112.946ZM428.136 108.847C429.59 108.847 430.698 109.459 431.461 110.683C432.224 111.901 432.605 113.544 432.605 115.613C432.605 117.687 432.224 119.336 431.461 120.56C430.698 121.778 429.59 122.387 428.136 122.387C426.687 122.387 425.579 121.778 424.811 120.56C424.048 119.336 423.667 117.687 423.667 115.613C423.667 113.544 424.048 111.901 424.811 110.683C425.579 109.459 426.687 108.847 428.136 108.847ZM425.642 118.345L430.062 111.423C429.782 110.913 429.478 110.57 429.148 110.394C428.825 110.213 428.487 110.123 428.136 110.123C427.22 110.123 426.523 110.633 426.045 111.654C425.568 112.669 425.329 113.958 425.329 115.522C425.329 115.879 425.34 116.263 425.362 116.675C425.384 117.086 425.477 117.643 425.642 118.345ZM430.613 112.946L426.226 119.909C426.462 120.31 426.734 120.612 427.041 120.815C427.349 121.012 427.691 121.111 428.07 121.111C429.113 121.111 429.853 120.529 430.292 119.366C430.731 118.197 430.951 116.902 430.951 115.481C430.951 114.603 430.838 113.758 430.613 112.946ZM438.26 122.387C437.892 122.387 437.577 122.255 437.313 121.992C437.05 121.728 436.918 121.413 436.918 121.045C436.918 120.672 437.05 120.357 437.313 120.099C437.582 119.835 437.898 119.704 438.26 119.704C438.622 119.704 438.935 119.835 439.198 120.099C439.467 120.357 439.602 120.672 439.602 121.045C439.602 121.413 439.47 121.728 439.206 121.992C438.943 122.255 438.628 122.387 438.26 122.387ZM448.384 108.847C449.838 108.847 450.946 109.459 451.709 110.683C452.472 111.901 452.853 113.544 452.853 115.613C452.853 117.687 452.472 119.336 451.709 120.56C450.946 121.778 449.838 122.387 448.384 122.387C446.935 122.387 445.827 121.778 445.059 120.56C444.296 119.336 443.914 117.687 443.914 115.613C443.914 113.544 444.296 111.901 445.059 110.683C445.827 109.459 446.935 108.847 448.384 108.847ZM445.89 118.345L450.31 111.423C450.03 110.913 449.725 110.57 449.396 110.394C449.073 110.213 448.735 110.123 448.384 110.123C447.467 110.123 446.771 110.633 446.293 111.654C445.816 112.669 445.577 113.958 445.577 115.522C445.577 115.879 445.588 116.263 445.61 116.675C445.632 117.086 445.725 117.643 445.89 118.345ZM450.861 112.946L446.474 119.909C446.71 120.31 446.982 120.612 447.289 120.815C447.596 121.012 447.939 121.111 448.318 121.111C449.361 121.111 450.101 120.529 450.54 119.366C450.979 118.197 451.199 116.902 451.199 115.481C451.199 114.603 451.086 113.758 450.861 112.946ZM458.508 108.847C459.962 108.847 461.07 109.459 461.833 110.683C462.596 111.901 462.977 113.544 462.977 115.613C462.977 117.687 462.596 119.336 461.833 120.56C461.07 121.778 459.962 122.387 458.508 122.387C457.059 122.387 455.951 121.778 455.183 120.56C454.42 119.336 454.038 117.687 454.038 115.613C454.038 113.544 454.42 111.901 455.183 110.683C455.951 109.459 457.059 108.847 458.508 108.847ZM456.014 118.345L460.434 111.423C460.154 110.913 459.849 110.57 459.52 110.394C459.196 110.213 458.859 110.123 458.508 110.123C457.591 110.123 456.895 110.633 456.417 111.654C455.94 112.669 455.701 113.958 455.701 115.522C455.701 115.879 455.712 116.263 455.734 116.675C455.756 117.086 455.849 117.643 456.014 118.345ZM460.985 112.946L456.598 119.909C456.834 120.31 457.106 120.612 457.413 120.815C457.72 121.012 458.063 121.111 458.442 121.111C459.485 121.111 460.225 120.529 460.664 119.366C461.103 118.197 461.323 116.902 461.323 115.481C461.323 114.603 461.21 113.758 460.985 112.946Z" fill="#FFFEE3"/>
</g>
<defs>
<clipPath id="clip0_302_25">
<rect width="480" height="181" fill="white"/>
</clipPath>
</defs>
</svg>
