<svg width="480" height="181" viewBox="0 0 480 181" fill="none" xmlns="http://www.w3.org/2000/svg">
<g clip-path="url(#clip0_302_26)">
<rect width="480" height="181" fill="white"/>
<rect width="480" height="181" fill="white"/>
<rect x="299" y="79" width="75.2937" height="21.3519" fill="#52679F"/>
<path d="M16.8235 44.0619C15.3035 43.9686 14.0222 43.5378 12.9797 42.7696C11.9371 42.0069 11.103 40.9753 10.4775 39.6748C9.85743 38.3744 9.5474 37.0711 9.5474 35.7652C9.5474 34.4592 9.85743 33.156 10.4775 31.8555C11.103 30.555 11.9371 29.5234 12.9797 28.7607C14.0222 27.9925 15.3035 27.559 16.8235 27.4602V28.7443C15.6766 28.8485 14.6889 29.2354 13.8604 29.9048C13.0373 30.5688 12.3898 31.4165 11.9179 32.4481C11.446 33.4797 11.21 34.5854 11.21 35.7652C11.21 36.9449 11.446 38.0506 11.9179 39.0822C12.3898 40.1138 13.0373 40.9616 13.8604 41.6255C14.6889 42.2895 15.6766 42.6764 16.8235 42.7861V44.0619ZM27.1367 40.7366C26.1106 41.0823 25.1339 41.2552 24.2066 41.2552C23.2847 41.2552 22.4644 41.0439 21.7455 40.6214C21.0322 40.1934 20.4752 39.6172 20.0747 38.8929C19.6741 38.1631 19.4738 37.3345 19.4738 36.4072C19.4738 35.0134 19.9265 33.8556 20.8319 32.9338C21.7428 32.0119 22.8402 31.551 24.1243 31.551C25.0735 31.551 26.0777 31.7293 27.1367 32.086V33.5593C26.0667 33.0709 25.1092 32.8268 24.2642 32.8268C23.7045 32.8268 23.1777 32.9667 22.6839 33.2465C22.19 33.5209 21.8086 33.9516 21.5398 34.5388C21.2709 35.1259 21.1364 35.7295 21.1364 36.3496C21.1364 37.1781 21.3944 37.9683 21.9102 38.7201C22.4314 39.4718 23.2463 39.8477 24.3547 39.8477C24.6894 39.8477 25.0187 39.8257 25.3424 39.7818C25.6662 39.7324 26.2643 39.5596 27.1367 39.2633V40.7366ZM35.5651 38.9341C35.0987 39.7023 34.5363 40.2812 33.8778 40.6708C33.2248 41.0604 32.624 41.2552 32.0753 41.2552C31.307 41.2552 30.6157 40.9232 30.0011 40.2592C29.392 39.5953 29.0875 38.5884 29.0875 37.2385C29.0875 36.174 29.2905 35.2247 29.6965 34.3906C30.1026 33.5511 30.6458 32.8899 31.3263 32.407C32.0067 31.9186 32.849 31.6744 33.8531 31.6744C34.1439 31.6744 34.5829 31.7046 35.1701 31.765C35.2579 31.776 35.3896 31.7897 35.5651 31.8061H37.1043V38.3003C37.1043 39.4087 37.2195 40.3086 37.45 41H35.8532C35.7325 40.4952 35.6365 39.8065 35.5651 38.9341ZM35.5651 37.115V33.1725C35.0219 33.0298 34.5171 32.9585 34.0507 32.9585C33.1069 32.9585 32.3194 33.3234 31.6884 34.0532C31.0629 34.783 30.7501 35.7761 30.7501 37.0327C30.7501 37.9436 30.9202 38.6323 31.2604 39.0987C31.6061 39.5596 31.9984 39.7901 32.4374 39.7901C32.9148 39.7901 33.4416 39.5486 34.0177 39.0657C34.5939 38.5829 35.1097 37.9326 35.5651 37.115ZM39.7547 40.5144V38.8929C40.3692 39.2935 41.0195 39.5761 41.7054 39.7407C42.3913 39.8998 42.9729 39.9794 43.4503 39.9794C44.224 39.9794 44.781 39.8559 45.1212 39.609C45.4614 39.3566 45.6315 39.0438 45.6315 38.6707C45.6315 38.4237 45.5519 38.2125 45.3928 38.0369C45.2337 37.8613 44.8386 37.6446 44.2075 37.3867L43.6808 37.1727L42.619 36.7529C41.4776 36.3084 40.7561 35.8996 40.4543 35.5265C40.158 35.1479 40.0098 34.6897 40.0098 34.1519C40.0098 33.3947 40.3006 32.7719 40.8823 32.2835C41.4694 31.7952 42.4187 31.551 43.7302 31.551C44.7124 31.551 45.6425 31.6936 46.5204 31.979V33.37C45.5108 33.0078 44.5615 32.8268 43.6725 32.8268C43.025 32.8268 42.5175 32.942 42.1498 33.1725C41.7877 33.3974 41.6066 33.68 41.6066 34.0202C41.6066 34.3495 41.763 34.6129 42.0758 34.8104C42.394 35.0079 42.9071 35.2357 43.6149 35.4936L44.652 35.8722C45.6013 36.2179 46.268 36.5937 46.6521 36.9998C47.0362 37.4059 47.2283 37.9134 47.2283 38.5225C47.2283 39.3182 46.921 39.9739 46.3064 40.4897C45.6973 41 44.7206 41.2552 43.3762 41.2552C42.202 41.2552 40.9948 41.0082 39.7547 40.5144ZM49.7716 41V27.7154H51.3025V33.8145C51.7415 33.1066 52.271 32.5524 52.8911 32.1518C53.5112 31.7513 54.1312 31.551 54.7513 31.551C55.2726 31.551 55.7472 31.6854 56.1752 31.9543C56.6087 32.2177 56.9105 32.5387 57.0806 32.9173C57.2178 33.2081 57.3111 33.5181 57.3605 33.8474C57.4098 34.1711 57.4345 34.8433 57.4345 35.8639V41H55.9036V35.6746C55.9036 34.7912 55.8597 34.2095 55.7719 33.9297C55.6896 33.6444 55.5332 33.4111 55.3027 33.2301C55.0778 33.049 54.8308 32.9585 54.562 32.9585C54.0242 32.9585 53.4453 33.2136 52.8253 33.7239C52.2107 34.2342 51.7031 34.8735 51.3025 35.6417V41H49.7716ZM70.4064 41L68.9084 31.8061H70.3323L71.2048 37.4031L71.4352 38.7036L71.6575 37.4031L73.1226 31.8061H74.4971L76.1515 37.4031L76.4396 38.7036L76.6289 37.4031L77.5096 31.8061H78.6866L77.1968 41H75.7647L74.0033 35.082L73.7234 33.7815H73.6823L73.4271 35.0738L71.8962 41H70.4064ZM80.6456 41.3869H79.1393L87.2632 27.8471H88.72L80.6456 41.3869ZM94.0536 41.2552C92.7367 41.2552 91.6831 40.797 90.893 39.8806C90.1028 38.9587 89.7077 37.7982 89.7077 36.399C89.7077 34.9997 90.1028 33.8419 90.893 32.9255C91.6831 32.0092 92.7367 31.551 94.0536 31.551C95.3651 31.551 96.4159 32.0092 97.206 32.9255C97.9962 33.8419 98.3913 34.9997 98.3913 36.399C98.3913 37.7982 97.9962 38.9587 97.206 39.8806C96.4159 40.797 95.3651 41.2552 94.0536 41.2552ZM94.0536 39.9794C94.8712 39.9794 95.5215 39.6611 96.0043 39.0246C96.4872 38.3881 96.7287 37.5129 96.7287 36.399C96.7287 35.2905 96.4872 34.4181 96.0043 33.7815C95.5215 33.145 94.8712 32.8268 94.0536 32.8268C93.2305 32.8268 92.5776 33.145 92.0947 33.7815C91.6118 34.4181 91.3704 35.2905 91.3704 36.399C91.3704 37.5129 91.6118 38.3881 92.0947 39.0246C92.5776 39.6611 93.2305 39.9794 94.0536 39.9794ZM110.532 40.7284V39.1645C111.849 39.7901 113.045 40.1028 114.12 40.1028C114.57 40.1028 115.001 40.0178 115.413 39.8477C115.824 39.6721 116.134 39.4224 116.343 39.0987C116.557 38.7749 116.664 38.4237 116.664 38.0451C116.664 37.6007 116.518 37.1864 116.228 36.8023C115.937 36.4127 115.391 35.9847 114.59 35.5182L113.75 35.0326L112.902 34.547C111.41 33.6636 110.663 32.5661 110.663 31.2547C110.663 30.2944 110.995 29.4878 111.659 28.8348C112.329 28.1763 113.371 27.8471 114.787 27.8471C115.698 27.8471 116.579 27.9788 117.429 28.2422V29.6661C116.491 29.304 115.577 29.1229 114.688 29.1229C113.981 29.1229 113.407 29.3094 112.968 29.6826C112.535 30.0557 112.318 30.5057 112.318 31.0324C112.318 31.5537 112.485 31.9872 112.82 32.3329C113.155 32.6786 113.583 32.9969 114.104 33.2877L114.746 33.6745L115.544 34.1602L116.219 34.5552C117.619 35.4112 118.318 36.4867 118.318 37.7817C118.318 38.7694 117.959 39.6172 117.24 40.3251C116.521 41.0329 115.369 41.3869 113.783 41.3869C113.278 41.3869 112.795 41.343 112.334 41.2552C111.879 41.1728 111.278 40.9973 110.532 40.7284ZM128.286 40.3909C127.062 40.9726 125.904 41.2634 124.812 41.2634C123.984 41.2634 123.243 41.0576 122.59 40.6461C121.937 40.2345 121.413 39.6474 121.018 38.8847C120.628 38.1165 120.434 37.2961 120.434 36.4236C120.434 35.5841 120.62 34.7775 120.993 34.0038C121.366 33.2301 121.888 32.6292 122.557 32.2012C123.227 31.7677 123.973 31.551 124.796 31.551C125.888 31.551 126.763 31.9406 127.422 32.7198C128.085 33.4989 128.417 34.7006 128.417 36.3249V36.6541H122.08C122.08 37.2906 122.211 37.8723 122.475 38.399C122.744 38.9258 123.095 39.3209 123.528 39.5843C123.962 39.8477 124.456 39.9794 125.01 39.9794C125.998 39.9794 127.09 39.6501 128.286 38.9917V40.3909ZM122.17 35.51H126.755V35.2878C126.755 34.536 126.571 33.9379 126.203 33.4935C125.836 33.049 125.345 32.8268 124.73 32.8268C124.11 32.8268 123.572 33.0545 123.117 33.5099C122.667 33.9599 122.351 34.6266 122.17 35.51ZM131.545 41V31.8061H133.076V33.8145C133.554 33.0572 134.099 32.492 134.714 32.1189C135.334 31.7403 136.023 31.551 136.78 31.551C137.334 31.551 137.888 31.636 138.443 31.8061V35.1232H136.969V33.0243C136.711 32.9804 136.508 32.9585 136.36 32.9585C135.79 32.9585 135.23 33.1834 134.681 33.6334C134.132 34.0833 133.597 34.7583 133.076 35.6582V41H131.545ZM143.875 41L139.883 31.8061H141.562L144.715 39.0822L147.933 31.8061H149.464L145.439 41H143.875ZM153.587 41V33.0819H151.036V31.8061H155.118V39.7242H157.678V41H153.587ZM153.332 28.4891C153.332 28.1434 153.45 27.8855 153.686 27.7154C153.922 27.5453 154.144 27.4602 154.353 27.4602C154.567 27.4602 154.792 27.5453 155.028 27.7154C155.264 27.8855 155.382 28.1434 155.382 28.4891C155.382 28.8293 155.264 29.0845 155.028 29.2546C154.792 29.4247 154.567 29.5097 154.353 29.5097C154.144 29.5097 153.922 29.4247 153.686 29.2546C153.45 29.0845 153.332 28.8293 153.332 28.4891ZM168.872 40.7366C167.846 41.0823 166.869 41.2552 165.942 41.2552C165.02 41.2552 164.2 41.0439 163.481 40.6214C162.768 40.1934 162.211 39.6172 161.81 38.8929C161.409 38.1631 161.209 37.3345 161.209 36.4072C161.209 35.0134 161.662 33.8556 162.567 32.9338C163.478 32.0119 164.576 31.551 165.86 31.551C166.809 31.551 167.813 31.7293 168.872 32.086V33.5593C167.802 33.0709 166.845 32.8268 166 32.8268C165.44 32.8268 164.913 32.9667 164.419 33.2465C163.925 33.5209 163.544 33.9516 163.275 34.5388C163.006 35.1259 162.872 35.7295 162.872 36.3496C162.872 37.1781 163.13 37.9683 163.646 38.7201C164.167 39.4718 164.982 39.8477 166.09 39.8477C166.425 39.8477 166.754 39.8257 167.078 39.7818C167.402 39.7324 168 39.5596 168.872 39.2633V40.7366ZM178.906 40.3909C177.682 40.9726 176.524 41.2634 175.432 41.2634C174.604 41.2634 173.863 41.0576 173.21 40.6461C172.557 40.2345 172.033 39.6474 171.638 38.8847C171.248 38.1165 171.053 37.2961 171.053 36.4236C171.053 35.5841 171.24 34.7775 171.613 34.0038C171.986 33.2301 172.507 32.6292 173.177 32.2012C173.846 31.7677 174.593 31.551 175.416 31.551C176.508 31.551 177.383 31.9406 178.041 32.7198C178.705 33.4989 179.037 34.7006 179.037 36.3249V36.6541H172.699C172.699 37.2906 172.831 37.8723 173.095 38.399C173.363 38.9258 173.715 39.3209 174.148 39.5843C174.582 39.8477 175.075 39.9794 175.63 39.9794C176.617 39.9794 177.709 39.6501 178.906 38.9917V40.3909ZM172.79 35.51H177.375V35.2878C177.375 34.536 177.191 33.9379 176.823 33.4935C176.455 33.049 175.964 32.8268 175.35 32.8268C174.73 32.8268 174.192 33.0545 173.737 33.5099C173.287 33.9599 172.971 34.6266 172.79 35.51ZM199.186 40.8518C198.232 41.2085 197.376 41.3869 196.618 41.3869C195.62 41.3869 194.701 41.1207 193.861 40.5885C193.021 40.0507 192.368 39.2551 191.902 38.2015C191.436 37.1425 191.202 35.9463 191.202 34.6129C191.202 33.2904 191.433 32.1024 191.894 31.0489C192.355 29.9953 193.005 29.1969 193.845 28.6537C194.684 28.1105 195.609 27.8389 196.618 27.8389C197.376 27.8389 198.232 28.0172 199.186 28.3739V29.8883C198.303 29.378 197.425 29.1229 196.553 29.1229C195.894 29.1229 195.29 29.3478 194.742 29.7978C194.198 30.2478 193.759 30.909 193.425 31.7814C193.09 32.6484 192.923 33.5922 192.923 34.6129C192.923 35.6499 193.096 36.6075 193.441 37.4854C193.787 38.3634 194.229 39.0219 194.766 39.4608C195.304 39.8943 195.9 40.1111 196.553 40.1111C197.419 40.1111 198.297 39.8559 199.186 39.3456V40.8518ZM201.631 41V27.7154H203.162V33.8145C203.601 33.1066 204.13 32.5524 204.75 32.1518C205.371 31.7513 205.991 31.551 206.611 31.551C207.132 31.551 207.607 31.6854 208.035 31.9543C208.468 32.2177 208.77 32.5387 208.94 32.9173C209.077 33.2081 209.17 33.5181 209.22 33.8474C209.269 34.1711 209.294 34.8433 209.294 35.8639V41H207.763V35.6746C207.763 34.7912 207.719 34.2095 207.631 33.9297C207.549 33.6444 207.393 33.4111 207.162 33.2301C206.937 33.049 206.69 32.9585 206.421 32.9585C205.884 32.9585 205.305 33.2136 204.685 33.7239C204.07 34.2342 203.562 34.8735 203.162 35.6417V41H201.631ZM217.796 38.9341C217.33 39.7023 216.767 40.2812 216.109 40.6708C215.456 41.0604 214.855 41.2552 214.306 41.2552C213.538 41.2552 212.847 40.9232 212.232 40.2592C211.623 39.5953 211.319 38.5884 211.319 37.2385C211.319 36.174 211.522 35.2247 211.928 34.3906C212.334 33.5511 212.877 32.8899 213.557 32.407C214.238 31.9186 215.08 31.6744 216.084 31.6744C216.375 31.6744 216.814 31.7046 217.401 31.765C217.489 31.776 217.621 31.7897 217.796 31.8061H219.336V38.3003C219.336 39.4087 219.451 40.3086 219.681 41H218.084C217.964 40.4952 217.868 39.8065 217.796 38.9341ZM217.796 37.115V33.1725C217.253 33.0298 216.748 32.9585 216.282 32.9585C215.338 32.9585 214.551 33.3234 213.92 34.0532C213.294 34.783 212.981 35.7761 212.981 37.0327C212.981 37.9436 213.151 38.6323 213.492 39.0987C213.837 39.5596 214.23 39.7901 214.669 39.7901C215.146 39.7901 215.673 39.5486 216.249 39.0657C216.825 38.5829 217.341 37.9326 217.796 37.115ZM222.661 41V31.8061H224.192V33.8145C224.669 33.0572 225.215 32.492 225.83 32.1189C226.45 31.7403 227.138 31.551 227.896 31.551C228.45 31.551 229.004 31.636 229.558 31.8061V35.1232H228.085V33.0243C227.827 32.9804 227.624 32.9585 227.476 32.9585C226.905 32.9585 226.345 33.1834 225.797 33.6334C225.248 34.0833 224.713 34.7583 224.192 35.6582V41H222.661ZM238.143 38.9341C237.677 39.7023 237.114 40.2812 236.456 40.6708C235.803 41.0604 235.202 41.2552 234.653 41.2552C233.885 41.2552 233.194 40.9232 232.579 40.2592C231.97 39.5953 231.665 38.5884 231.665 37.2385C231.665 36.174 231.868 35.2247 232.274 34.3906C232.68 33.5511 233.224 32.8899 233.904 32.407C234.585 31.9186 235.427 31.6744 236.431 31.6744C236.722 31.6744 237.161 31.7046 237.748 31.765C237.836 31.776 237.967 31.7897 238.143 31.8061H239.682V38.3085C239.682 39.8559 239.66 40.7997 239.616 41.1399C239.578 41.4856 239.512 41.8341 239.419 42.1852C239.199 43.0028 238.697 43.6476 237.913 44.1195C237.133 44.5914 236.19 44.8273 235.081 44.8273C233.967 44.8273 232.84 44.542 231.698 43.9713V42.4239C232.132 42.7202 232.664 42.9809 233.295 43.2059C233.932 43.4363 234.546 43.5516 235.139 43.5516C235.605 43.5516 236.047 43.4775 236.464 43.3293C236.881 43.1812 237.218 42.9672 237.476 42.6873C237.734 42.4075 237.91 42.081 238.003 41.7079C238.096 41.3402 238.143 40.8491 238.143 40.2345V38.9341ZM238.143 37.115V33.1725C237.6 33.0298 237.095 32.9585 236.629 32.9585C235.685 32.9585 234.897 33.3234 234.266 34.0532C233.641 34.783 233.328 35.7761 233.328 37.0327C233.328 37.9436 233.498 38.6323 233.838 39.0987C234.184 39.5596 234.576 39.7901 235.015 39.7901C235.493 39.7901 236.019 39.5486 236.596 39.0657C237.172 38.5829 237.688 37.9326 238.143 37.115ZM249.773 40.3909C248.55 40.9726 247.392 41.2634 246.3 41.2634C245.471 41.2634 244.73 41.0576 244.077 40.6461C243.424 40.2345 242.9 39.6474 242.505 38.8847C242.116 38.1165 241.921 37.2961 241.921 36.4236C241.921 35.5841 242.108 34.7775 242.481 34.0038C242.854 33.2301 243.375 32.6292 244.045 32.2012C244.714 31.7677 245.46 31.551 246.283 31.551C247.375 31.551 248.251 31.9406 248.909 32.7198C249.573 33.4989 249.905 34.7006 249.905 36.3249V36.6541H243.567C243.567 37.2906 243.699 37.8723 243.962 38.399C244.231 38.9258 244.582 39.3209 245.016 39.5843C245.449 39.8477 245.943 39.9794 246.497 39.9794C247.485 39.9794 248.577 39.6501 249.773 38.9917V40.3909ZM243.658 35.51H248.242V35.2878C248.242 34.536 248.058 33.9379 247.691 33.4935C247.323 33.049 246.832 32.8268 246.218 32.8268C245.597 32.8268 245.06 33.0545 244.604 33.5099C244.154 33.9599 243.839 34.6266 243.658 35.51ZM364.462 41H362.734L366.47 34.3248L363.096 28.2257H364.981L367.425 32.6292L369.927 28.2257H371.664L368.289 34.2013L372.059 41H370.141L367.335 35.9051L364.462 41ZM374.586 41H372.857L376.594 34.3248L373.22 28.2257H375.105L377.549 32.6292L380.051 28.2257H381.788L378.413 34.2013L382.183 41H380.265L377.459 35.9051L374.586 41ZM384.71 41H382.981L386.718 34.3248L383.344 28.2257H385.228L387.673 32.6292L390.175 28.2257H391.912L388.537 34.2013L392.307 41H390.389L387.582 35.9051L384.71 41ZM397.764 41.3869C397.396 41.3869 397.081 41.2552 396.818 40.9918C396.554 40.7284 396.422 40.4129 396.422 40.0452C396.422 39.6721 396.554 39.3566 396.818 39.0987C397.086 38.8353 397.402 38.7036 397.764 38.7036C398.126 38.7036 398.439 38.8353 398.702 39.0987C398.971 39.3566 399.106 39.6721 399.106 40.0452C399.106 40.4129 398.974 40.7284 398.711 40.9918C398.447 41.2552 398.132 41.3869 397.764 41.3869ZM404.958 41H403.229L406.966 34.3248L403.591 28.2257H405.476L407.921 32.6292L410.423 28.2257H412.16L408.785 34.2013L412.555 41H410.637L407.83 35.9051L404.958 41ZM415.082 41H413.353L417.09 34.3248L413.715 28.2257H415.6L418.045 32.6292L420.547 28.2257H422.284L418.909 34.2013L422.679 41H420.761L417.954 35.9051L415.082 41ZM424.374 27.4602C425.894 27.559 427.176 27.9925 428.218 28.7607C429.261 29.5234 430.092 30.555 430.712 31.8555C431.338 33.156 431.651 34.4592 431.651 35.7652C431.651 37.0711 431.338 38.3744 430.712 39.6748C430.092 40.9753 429.261 42.0069 428.218 42.7696C427.176 43.5378 425.894 43.9686 424.374 44.0619V42.7861C425.521 42.6764 426.506 42.2895 427.329 41.6255C428.158 40.9616 428.808 40.1138 429.28 39.0822C429.757 38.0506 429.996 36.9449 429.996 35.7652C429.996 34.5854 429.757 33.4797 429.28 32.4481C428.808 31.4165 428.158 30.5688 427.329 29.9048C426.506 29.2354 425.521 28.8485 424.374 28.7443V27.4602ZM16.9552 76.8518C16.0004 77.2085 15.1444 77.3869 14.3871 77.3869C13.3885 77.3869 12.4694 77.1207 11.6298 76.5885C10.7903 76.0507 10.1373 75.2551 9.67086 74.2015C9.20445 73.1425 8.97124 71.9463 8.97124 70.6129C8.97124 69.2904 9.20171 68.1024 9.66263 67.0489C10.1236 65.9953 10.7738 65.1969 11.6133 64.6537C12.4529 64.1105 13.3775 63.8389 14.3871 63.8389C15.1444 63.8389 16.0004 64.0172 16.9552 64.3739V65.8883C16.0717 65.378 15.1938 65.1229 14.3213 65.1229C13.6628 65.1229 13.0592 65.3478 12.5105 65.7978C11.9673 66.2478 11.5283 66.909 11.1936 67.7814C10.8589 68.6484 10.6915 69.5922 10.6915 70.6129C10.6915 71.6499 10.8643 72.6075 11.21 73.4854C11.5557 74.3634 11.9975 75.0219 12.5352 75.4608C13.073 75.8943 13.6683 76.1111 14.3213 76.1111C15.1883 76.1111 16.0662 75.8559 16.9552 75.3456V76.8518ZM19.9924 77H18.3956L22.3299 64.2257H24.0173L27.9763 77H26.2231L25.3506 74.1933H20.8566L19.9924 77ZM21.2517 72.9175H24.9803L23.4411 68.0695L23.0789 66.7855L22.7579 68.0695L21.2517 72.9175ZM29.5402 76.7284V75.1645C30.8571 75.7901 32.0533 76.1028 33.1288 76.1028C33.5788 76.1028 34.0095 76.0178 34.4211 75.8477C34.8326 75.6721 35.1426 75.4224 35.3511 75.0987C35.5651 74.7749 35.6721 74.4237 35.6721 74.0451C35.6721 73.6007 35.5267 73.1864 35.2359 72.8023C34.9451 72.4127 34.3991 71.9847 33.598 71.5182L32.7584 71.0326L31.9106 70.547C30.4181 69.6636 29.6718 68.5661 29.6718 67.2547C29.6718 66.2944 30.0038 65.4878 30.6678 64.8348C31.3372 64.1763 32.3798 63.8471 33.7955 63.8471C34.7064 63.8471 35.5871 63.9788 36.4376 64.2422V65.6661C35.4993 65.304 34.5857 65.1229 33.6967 65.1229C32.9889 65.1229 32.4155 65.3094 31.9765 65.6826C31.543 66.0557 31.3263 66.5057 31.3263 67.0324C31.3263 67.5537 31.4936 67.9872 31.8283 68.3329C32.1631 68.6786 32.5911 68.9969 33.1123 69.2877L33.7544 69.6745L34.5527 70.1602L35.2277 70.5552C36.6269 71.4112 37.3265 72.4867 37.3265 73.7817C37.3265 74.7694 36.9671 75.6172 36.2483 76.3251C35.5295 77.0329 34.3772 77.3869 32.7913 77.3869C32.2865 77.3869 31.8036 77.343 31.3427 77.2552C30.8873 77.1728 30.2864 76.9973 29.5402 76.7284ZM39.409 77V64.2257H41.0716V69.7239H45.7961V64.2257H47.4505V77H45.7961V70.9997H41.0716V77H39.409ZM60.0355 77V75.7242H62.8422V65.5097H60.0355V64.2257H67.3116V65.5097H64.5048V75.7242H67.3116V77H60.0355ZM71.3118 77H69.7808V64.2257H71.2788L75.7976 72.7282L76.2914 73.9957H76.3326L76.2914 72.7282V64.2257H77.8224V77H76.2914L71.8962 68.6374L71.2788 67.2958L71.3118 68.621V77ZM90.2674 77V64.2257H93.2964C94.6901 64.2257 95.7245 64.4699 96.3994 64.9583C97.0798 65.4411 97.5901 66.1737 97.9304 67.1559C98.2706 68.1381 98.4407 69.3014 98.4407 70.6458C98.4407 71.9188 98.2596 73.0382 97.8974 74.004C97.5408 74.9642 97.0332 75.705 96.3747 76.2263C95.7163 76.7421 94.6901 77 93.2964 77H90.2674ZM91.9301 75.5925H93.0412C94.1661 75.5925 94.9672 75.3922 95.4446 74.9917C95.9275 74.5911 96.2705 74.0369 96.4735 73.329C96.682 72.6157 96.7863 71.6335 96.7863 70.3824C96.7863 69.1587 96.6655 68.2177 96.4241 67.5592C96.1827 66.9007 95.837 66.3959 95.387 66.0447C94.9371 65.6881 94.199 65.5097 93.1729 65.5097H91.9301V75.5925ZM102.005 71.5759V77H100.342V64.2257H103.758C104.872 64.2257 105.692 64.3409 106.219 64.5714C106.746 64.7964 107.152 65.1393 107.437 65.6003C107.728 66.0612 107.873 66.5578 107.873 67.09C107.873 67.5839 107.777 68.0805 107.585 68.5798C107.393 69.0792 107.127 69.5264 106.787 69.9215C106.452 70.3111 105.966 70.6814 105.33 71.0326L109.026 77H107.05L103.667 71.5759H102.005ZM102.005 70.2919H104.334C104.855 70.0065 105.242 69.7157 105.495 69.4194C105.752 69.1231 105.947 68.8076 106.079 68.4728C106.211 68.1381 106.276 67.8034 106.276 67.4687C106.276 66.8706 106.057 66.3959 105.618 66.0447C105.184 65.6881 104.394 65.5097 103.247 65.5097H102.005V70.2919ZM111.108 77H109.511L113.446 64.2257H115.133L119.092 77H117.339L116.466 74.1933H111.972L111.108 77ZM112.367 72.9175H116.096L114.557 68.0695L114.195 66.7855L113.874 68.0695L112.367 72.9175ZM121.076 77L119.594 64.2257H121.108L121.981 72.0039L122.096 73.2961H122.137L122.302 72.0039L123.644 64.2257H125.158L126.689 72.3166L126.845 73.5513H126.887L126.985 72.3084L127.948 64.2257H129.249L127.701 77H126.129L124.483 68.3411L124.31 67.0407H124.269L124.113 68.3411L122.631 77H121.076ZM138.056 75.5925V77H131.158V64.2257H137.924V65.5097H132.821V69.8474H137.414V71.1232H132.821V75.5925H138.056ZM142.5 71.5759V77H140.838V64.2257H144.254C145.368 64.2257 146.188 64.3409 146.715 64.5714C147.241 64.7964 147.647 65.1393 147.933 65.6003C148.224 66.0612 148.369 66.5578 148.369 67.09C148.369 67.5839 148.273 68.0805 148.081 68.5798C147.889 69.0792 147.623 69.5264 147.283 69.9215C146.948 70.3111 146.462 70.6814 145.826 71.0326L149.521 77H147.546L144.163 71.5759H142.5ZM142.5 70.2919H144.83C145.351 70.0065 145.738 69.7157 145.99 69.4194C146.248 69.1231 146.443 68.8076 146.575 68.4728C146.706 68.1381 146.772 67.8034 146.772 67.4687C146.772 66.8706 146.553 66.3959 146.114 66.0447C145.68 65.6881 144.89 65.5097 143.743 65.5097H142.5V70.2919ZM189.062 76.8518C188.108 77.2085 187.252 77.3869 186.494 77.3869C185.496 77.3869 184.577 77.1207 183.737 76.5885C182.898 76.0507 182.245 75.2551 181.778 74.2015C181.312 73.1425 181.078 71.9463 181.078 70.6129C181.078 69.2904 181.309 68.1024 181.77 67.0489C182.231 65.9953 182.881 65.1969 183.721 64.6537C184.56 64.1105 185.485 63.8389 186.494 63.8389C187.252 63.8389 188.108 64.0172 189.062 64.3739V65.8883C188.179 65.378 187.301 65.1229 186.429 65.1229C185.77 65.1229 185.166 65.3478 184.618 65.7978C184.075 66.2478 183.636 66.909 183.301 67.7814C182.966 68.6484 182.799 69.5922 182.799 70.6129C182.799 71.6499 182.972 72.6075 183.317 73.4854C183.663 74.3634 184.105 75.0219 184.642 75.4608C185.18 75.8943 185.776 76.1111 186.429 76.1111C187.296 76.1111 188.173 75.8559 189.062 75.3456V76.8518ZM192.1 77H190.503L194.437 64.2257H196.124L200.084 77H198.33L197.458 74.1933H192.964L192.1 77ZM193.359 72.9175H197.088L195.548 68.0695L195.186 66.7855L194.865 68.0695L193.359 72.9175ZM201.647 76.7284V75.1645C202.964 75.7901 204.161 76.1028 205.236 76.1028C205.686 76.1028 206.117 76.0178 206.528 75.8477C206.94 75.6721 207.25 75.4224 207.458 75.0987C207.672 74.7749 207.779 74.4237 207.779 74.0451C207.779 73.6007 207.634 73.1864 207.343 72.8023C207.052 72.4127 206.506 71.9847 205.705 71.5182L204.866 71.0326L204.018 70.547C202.525 69.6636 201.779 68.5661 201.779 67.2547C201.779 66.2944 202.111 65.4878 202.775 64.8348C203.444 64.1763 204.487 63.8471 205.903 63.8471C206.814 63.8471 207.694 63.9788 208.545 64.2422V65.6661C207.607 65.304 206.693 65.1229 205.804 65.1229C205.096 65.1229 204.523 65.3094 204.084 65.6826C203.65 66.0557 203.434 66.5057 203.434 67.0324C203.434 67.5537 203.601 67.9872 203.936 68.3329C204.27 68.6786 204.698 68.9969 205.22 69.2877L205.862 69.6745L206.66 70.1602L207.335 70.5552C208.734 71.4112 209.434 72.4867 209.434 73.7817C209.434 74.7694 209.074 75.6172 208.356 76.3251C207.637 77.0329 206.484 77.3869 204.899 77.3869C204.394 77.3869 203.911 77.343 203.45 77.2552C202.995 77.1728 202.394 76.9973 201.647 76.7284ZM211.516 77V64.2257H213.179V69.7239H217.903V64.2257H219.558V77H217.903V70.9997H213.179V77H211.516ZM225.657 77.3869C225.289 77.3869 224.974 77.2552 224.71 76.9918C224.447 76.7284 224.315 76.4129 224.315 76.0452C224.315 75.6721 224.447 75.3566 224.71 75.0987C224.979 74.8353 225.295 74.7036 225.657 74.7036C226.019 74.7036 226.332 74.8353 226.595 75.0987C226.864 75.3566 226.998 75.6721 226.998 76.0452C226.998 76.4129 226.867 76.7284 226.603 76.9918C226.34 77.2552 226.024 77.3869 225.657 77.3869ZM225.657 70.2342C225.289 70.2342 224.974 70.1025 224.71 69.8392C224.447 69.5758 224.315 69.2602 224.315 68.8926C224.315 68.5195 224.447 68.204 224.71 67.9461C224.979 67.6827 225.295 67.551 225.657 67.551C226.019 67.551 226.332 67.6827 226.595 67.9461C226.864 68.204 226.998 68.5195 226.998 68.8926C226.998 69.2602 226.867 69.5758 226.603 69.8392C226.34 70.1025 226.024 70.2342 225.657 70.2342ZM245.625 78.2758V76.9835C245.257 76.9835 244.876 76.9643 244.481 76.9259C244.086 76.8875 243.715 76.8299 243.37 76.7531C243.024 76.6708 242.626 76.5281 242.176 76.3251V74.7447C242.538 74.9313 242.892 75.0904 243.238 75.2221C243.589 75.3538 243.957 75.4581 244.341 75.5349C244.73 75.6117 245.158 75.6666 245.625 75.6995V71.1149L244.744 70.6375C243.076 69.7431 242.242 68.6621 242.242 67.3946C242.242 66.7197 242.519 66.0639 243.073 65.4274C243.628 64.7854 244.478 64.415 245.625 64.3162V62.9499H246.777V64.3162C247.425 64.3162 248.19 64.4287 249.074 64.6537V66.0777L248.786 65.9953C247.957 65.7649 247.288 65.625 246.777 65.5756V70.0532L247.699 70.5799C248.566 71.0793 249.159 71.5704 249.477 72.0533C249.801 72.5361 249.963 73.0492 249.963 73.5924C249.963 74.0808 249.839 74.5554 249.592 75.0164C249.351 75.4718 249.002 75.8641 248.547 76.1934C248.091 76.5226 247.502 76.7503 246.777 76.8765V78.2758H245.625ZM245.625 69.3618V65.5591C245.071 65.6853 244.643 65.8938 244.341 66.1847C244.045 66.4755 243.896 66.8157 243.896 67.2053C243.896 67.5729 244.023 67.9269 244.275 68.2671C244.533 68.6018 244.983 68.9667 245.625 69.3618ZM246.777 71.7981V75.5843C247.375 75.3703 247.779 75.1096 247.987 74.8024C248.201 74.4896 248.308 74.1411 248.308 73.757C248.308 73.3839 248.204 73.0656 247.995 72.8023C247.787 72.5334 247.381 72.1987 246.777 71.7981ZM303.718 77H301.99L305.727 70.3248L302.352 64.2257H304.237L306.681 68.6292L309.184 64.2257H310.92L307.546 70.2013L311.315 77H309.398L306.591 71.9051L303.718 77ZM313.842 77H312.114L315.851 70.3248L312.476 64.2257H314.361L316.805 68.6292L319.308 64.2257H321.044L317.67 70.2013L321.439 77H319.522L316.715 71.9051L313.842 77ZM323.966 77H322.238L325.975 70.3248L322.6 64.2257H324.485L326.929 68.6292L329.431 64.2257H331.168L327.794 70.2013L331.563 77H329.645L326.839 71.9051L323.966 77ZM337.02 77.3869C336.653 77.3869 336.337 77.2552 336.074 76.9918C335.81 76.7284 335.679 76.4129 335.679 76.0452C335.679 75.6721 335.81 75.3566 336.074 75.0987C336.343 74.8353 336.658 74.7036 337.02 74.7036C337.382 74.7036 337.695 74.8353 337.959 75.0987C338.228 75.3566 338.362 75.6721 338.362 76.0452C338.362 76.4129 338.23 76.7284 337.967 76.9918C337.703 77.2552 337.388 77.3869 337.02 77.3869ZM344.214 77H342.486L346.222 70.3248L342.848 64.2257H344.733L347.177 68.6292L349.679 64.2257H351.416L348.041 70.2013L351.811 77H349.893L347.087 71.9051L344.214 77ZM354.338 77H352.61L356.346 70.3248L352.972 64.2257H354.857L357.301 68.6292L359.803 64.2257H361.54L358.165 70.2013L361.935 77H360.017L357.211 71.9051L354.338 77ZM12.2224 95V83.6332H8.39508V82.2257H17.7206V83.6332H13.8851V95H12.2224ZM19.5397 95V93.7242H22.3464V83.5097H19.5397V82.2257H26.8157V83.5097H24.009V93.7242H26.8157V95H19.5397ZM31.3592 90.3413V95H29.6965V82.2257H32.8737C34.1796 82.2257 35.1317 82.3739 35.7298 82.6702C36.3279 82.961 36.7861 83.389 37.1043 83.9542C37.4226 84.5194 37.5817 85.1504 37.5817 85.8473C37.5817 86.6649 37.3677 87.4276 36.9397 88.1355C36.5117 88.8433 35.9136 89.3893 35.1454 89.7734C34.3826 90.152 33.3456 90.3413 32.0341 90.3413H31.3592ZM31.3592 89.0656H32.0753C33.1014 89.0656 33.8641 88.9339 34.3634 88.6705C34.8628 88.4016 35.2469 88.0175 35.5158 87.5181C35.7846 87.0188 35.9191 86.4783 35.9191 85.8967C35.9191 85.1614 35.6776 84.5797 35.1948 84.1517C34.7174 83.7237 33.7708 83.5097 32.3551 83.5097H31.3592V89.0656ZM39.6641 94.7284V93.1645C40.9811 93.7901 42.1773 94.1028 43.2528 94.1028C43.7027 94.1028 44.1335 94.0178 44.545 93.8477C44.9566 93.6721 45.2666 93.4224 45.4751 93.0987C45.6891 92.7749 45.7961 92.4237 45.7961 92.0451C45.7961 91.6007 45.6507 91.1864 45.3599 90.8023C45.069 90.4127 44.5231 89.9847 43.7219 89.5182L42.8824 89.0326L42.0346 88.547C40.5421 87.6636 39.7958 86.5661 39.7958 85.2547C39.7958 84.2944 40.1278 83.4878 40.7917 82.8348C41.4612 82.1763 42.5038 81.8471 43.9195 81.8471C44.8303 81.8471 45.7111 81.9788 46.5616 82.2422V83.6661C45.6233 83.304 44.7096 83.1229 43.8207 83.1229C43.1128 83.1229 42.5394 83.3094 42.1004 83.6826C41.667 84.0557 41.4502 84.5057 41.4502 85.0324C41.4502 85.5537 41.6176 85.9872 41.9523 86.3329C42.287 86.6786 42.715 86.9969 43.2363 87.2877L43.8783 87.6745L44.6767 88.1602L45.3516 88.5552C46.7509 89.4112 47.4505 90.4867 47.4505 91.7817C47.4505 92.7694 47.0911 93.6172 46.3723 94.3251C45.6534 95.0329 44.5011 95.3869 42.9153 95.3869C42.4105 95.3869 41.9276 95.343 41.4667 95.2552C41.0112 95.1728 40.4104 94.9973 39.6641 94.7284ZM58.0189 89.8886V91.1727H54.1916V95H52.9076V91.1727H49.0802V89.8886H52.9076V86.0613H54.1916V89.8886H58.0189ZM59.912 94.7284V93.1645C61.229 93.7901 62.4252 94.1028 63.5007 94.1028C63.9506 94.1028 64.3814 94.0178 64.7929 93.8477C65.2045 93.6721 65.5145 93.4224 65.723 93.0987C65.937 92.7749 66.044 92.4237 66.044 92.0451C66.044 91.6007 65.8986 91.1864 65.6078 90.8023C65.317 90.4127 64.771 89.9847 63.9698 89.5182L63.1303 89.0326L62.2825 88.547C60.79 87.6636 60.0437 86.5661 60.0437 85.2547C60.0437 84.2944 60.3757 83.4878 61.0397 82.8348C61.7091 82.1763 62.7517 81.8471 64.1674 81.8471C65.0783 81.8471 65.959 81.9788 66.8095 82.2422V83.6661C65.8712 83.304 64.9575 83.1229 64.0686 83.1229C63.3608 83.1229 62.7873 83.3094 62.3484 83.6826C61.9149 84.0557 61.6981 84.5057 61.6981 85.0324C61.6981 85.5537 61.8655 85.9872 62.2002 86.3329C62.5349 86.6786 62.9629 86.9969 63.4842 87.2877L64.1262 87.6745L64.9246 88.1602L65.5995 88.5552C66.9988 89.4112 67.6984 90.4867 67.6984 91.7817C67.6984 92.7694 67.339 93.6172 66.6202 94.3251C65.9013 95.0329 64.749 95.3869 63.1632 95.3869C62.6584 95.3869 62.1755 95.343 61.7146 95.2552C61.2591 95.1728 60.6583 94.9973 59.912 94.7284ZM77.3121 93.5925V95H70.4146V82.2257H77.1804V83.5097H72.0772V87.8474H76.6701V89.1232H72.0772V93.5925H77.3121ZM81.7567 89.5759V95H80.0941V82.2257H83.5099C84.6238 82.2257 85.4441 82.3409 85.9709 82.5714C86.4977 82.7964 86.9038 83.1393 87.1891 83.6003C87.4799 84.0612 87.6253 84.5578 87.6253 85.09C87.6253 85.5839 87.5293 86.0805 87.3372 86.5798C87.1452 87.0792 86.8791 87.5264 86.5389 87.9215C86.2041 88.3111 85.7185 88.6814 85.082 89.0326L88.7776 95H86.8022L83.4194 89.5759H81.7567ZM81.7567 88.2919H84.0861C84.6073 88.0065 84.9942 87.7157 85.2466 87.4194C85.5045 87.1231 85.6993 86.8076 85.831 86.4728C85.9627 86.1381 86.0285 85.8034 86.0285 85.4687C86.0285 84.8706 85.809 84.3959 85.3701 84.0447C84.9366 83.6881 84.1464 83.5097 82.9996 83.5097H81.7567V88.2919ZM97.2472 82.2257H98.844L94.9096 95H93.2223L89.2633 82.2257H91.0164L93.7902 91.148L94.1524 92.4484L94.4734 91.1562L97.2472 82.2257ZM100.531 95V93.7242H103.338V83.5097H100.531V82.2257H107.807V83.5097H105.001V93.7242H107.807V95H100.531ZM118.195 94.8518C117.24 95.2085 116.384 95.3869 115.627 95.3869C114.628 95.3869 113.709 95.1207 112.869 94.5885C112.03 94.0507 111.377 93.2551 110.91 92.2015C110.444 91.1425 110.211 89.9463 110.211 88.6129C110.211 87.2904 110.441 86.1024 110.902 85.0489C111.363 83.9953 112.013 83.1969 112.853 82.6537C113.692 82.1105 114.617 81.8389 115.627 81.8389C116.384 81.8389 117.24 82.0172 118.195 82.3739V83.8883C117.311 83.378 116.433 83.1229 115.561 83.1229C114.902 83.1229 114.299 83.3478 113.75 83.7978C113.207 84.2478 112.768 84.909 112.433 85.7814C112.098 86.6484 111.931 87.5922 111.931 88.6129C111.931 89.6499 112.104 90.6075 112.45 91.4854C112.795 92.3634 113.237 93.0219 113.775 93.4608C114.313 93.8943 114.908 94.1111 115.561 94.1111C116.428 94.1111 117.306 93.8559 118.195 93.3456V94.8518ZM127.932 93.5925V95H121.034V82.2257H127.8V83.5097H122.697V87.8474H127.29V89.1232H122.697V93.5925H127.932ZM143.834 95V83.6332H140.007V82.2257H149.332V83.6332H145.496V95H143.834ZM154.789 95.3869C153.34 95.3869 152.232 94.7778 151.464 93.5596C150.701 92.3359 150.32 90.687 150.32 88.6129C150.32 86.5442 150.701 84.9007 151.464 83.6826C152.232 82.4589 153.34 81.8471 154.789 81.8471C156.243 81.8471 157.352 82.4589 158.114 83.6826C158.877 84.9007 159.258 86.5442 159.258 88.6129C159.258 90.687 158.877 92.3359 158.114 93.5596C157.352 94.7778 156.243 95.3869 154.789 95.3869ZM154.789 94.1028C155.59 94.1028 156.257 93.6501 156.789 92.7447C157.327 91.8339 157.596 90.4566 157.596 88.6129C157.596 86.7691 157.327 85.3946 156.789 84.4892C156.257 83.5783 155.59 83.1229 154.789 83.1229C153.988 83.1229 153.319 83.5783 152.781 84.4892C152.249 85.3946 151.982 86.7691 151.982 88.6129C151.982 90.4566 152.249 91.8339 152.781 92.7447C153.319 93.6501 153.988 94.1028 154.789 94.1028ZM164.082 95V83.6332H160.254V82.2257H169.58V83.6332H165.744V95H164.082ZM171.852 95H170.255L174.189 82.2257H175.877L179.836 95H178.082L177.21 92.1933H172.716L171.852 95ZM173.111 90.9175H176.84L175.3 86.0695L174.938 84.7855L174.617 86.0695L173.111 90.9175ZM188.807 93.5925V95H181.91V82.2257H183.572V93.5925H188.807ZM10.889 125.576V131H9.2264V118.226H12.6422C13.7561 118.226 14.5765 118.341 15.1032 118.571C15.63 118.796 16.0361 119.139 16.3214 119.6C16.6122 120.061 16.7576 120.558 16.7576 121.09C16.7576 121.584 16.6616 122.08 16.4696 122.58C16.2775 123.079 16.0114 123.526 15.6712 123.921C15.3364 124.311 14.8508 124.681 14.2143 125.033L17.91 131H15.9345L12.5517 125.576H10.889ZM10.889 124.292H13.2184C13.7397 124.007 14.1265 123.716 14.3789 123.419C14.6368 123.123 14.8316 122.808 14.9633 122.473C15.095 122.138 15.1608 121.803 15.1608 121.469C15.1608 120.871 14.9414 120.396 14.5024 120.045C14.0689 119.688 13.2787 119.51 12.1319 119.51H10.889V124.292ZM26.6923 129.593V131H19.7948V118.226H26.5606V119.51H21.4575V123.847H26.0503V125.123H21.4575V129.593H26.6923ZM37.2031 130.992C36.3032 131.255 35.4773 131.387 34.7256 131.387C33.6611 131.387 32.7118 131.123 31.8777 130.597C31.0491 130.07 30.3989 129.277 29.927 128.218C29.4551 127.153 29.2192 125.952 29.2192 124.613C29.2192 123.29 29.4496 122.102 29.9105 121.049C30.3715 119.995 31.0217 119.197 31.8613 118.654C32.7008 118.11 33.6227 117.839 34.6268 117.839C35.3841 117.839 36.2401 118.017 37.1949 118.374V119.888C36.3114 119.378 35.4335 119.123 34.561 119.123C33.9025 119.123 33.2989 119.348 32.7502 119.798C32.207 120.248 31.768 120.909 31.4333 121.781C31.104 122.648 30.9394 123.598 30.9394 124.629C30.9394 126.012 31.2549 127.271 31.886 128.407C32.517 129.543 33.5129 130.111 34.8738 130.111C35.0493 130.111 35.2716 130.097 35.5405 130.07V125.954H34.2647V124.679H37.2031V130.992ZM39.7876 131V129.724H42.5943V119.51H39.7876V118.226H47.0637V119.51H44.2569V129.724H47.0637V131H39.7876ZM49.7881 130.728V129.165C51.105 129.79 52.3012 130.103 53.3767 130.103C53.8267 130.103 54.2574 130.018 54.669 129.848C55.0805 129.672 55.3905 129.422 55.5991 129.099C55.8131 128.775 55.9201 128.424 55.9201 128.045C55.9201 127.601 55.7746 127.186 55.4838 126.802C55.193 126.413 54.647 125.985 53.8459 125.518L53.0063 125.033L52.1586 124.547C50.666 123.664 49.9198 122.566 49.9198 121.255C49.9198 120.294 50.2517 119.488 50.9157 118.835C51.5851 118.176 52.6277 117.847 54.0434 117.847C54.9543 117.847 55.835 117.979 56.6855 118.242V119.666C55.7472 119.304 54.8336 119.123 53.9447 119.123C53.2368 119.123 52.6634 119.309 52.2244 119.683C51.7909 120.056 51.5742 120.506 51.5742 121.032C51.5742 121.554 51.7415 121.987 52.0762 122.333C52.411 122.679 52.839 122.997 53.3603 123.288L54.0023 123.675L54.8007 124.16L55.4756 124.555C56.8748 125.411 57.5745 126.487 57.5745 127.782C57.5745 128.769 57.215 129.617 56.4962 130.325C55.7774 131.033 54.6251 131.387 53.0393 131.387C52.5344 131.387 52.0516 131.343 51.5906 131.255C51.1352 131.173 50.5343 130.997 49.7881 130.728ZM62.8422 131V119.633H59.0149V118.226H68.3404V119.633H64.5048V131H62.8422ZM77.3121 129.593V131H70.4146V118.226H77.1804V119.51H72.0772V123.847H76.6701V125.123H72.0772V129.593H77.3121ZM81.7567 125.576V131H80.0941V118.226H83.5099C84.6238 118.226 85.4441 118.341 85.9709 118.571C86.4977 118.796 86.9038 119.139 87.1891 119.6C87.4799 120.061 87.6253 120.558 87.6253 121.09C87.6253 121.584 87.5293 122.08 87.3372 122.58C87.1452 123.079 86.8791 123.526 86.5389 123.921C86.2041 124.311 85.7185 124.681 85.082 125.033L88.7776 131H86.8022L83.4194 125.576H81.7567ZM81.7567 124.292H84.0861C84.6073 124.007 84.9942 123.716 85.2466 123.419C85.5045 123.123 85.6993 122.808 85.831 122.473C85.9627 122.138 86.0285 121.803 86.0285 121.469C86.0285 120.871 85.809 120.396 85.3701 120.045C84.9366 119.688 84.1464 119.51 82.9996 119.51H81.7567V124.292ZM107.816 129.593V131H100.918V118.226H102.581V129.593H107.816ZM110.655 131V129.724H113.462V119.51H110.655V118.226H117.931V119.51H115.125V129.724H117.931V131H110.655ZM120.656 130.728V129.165C121.973 129.79 123.169 130.103 124.244 130.103C124.694 130.103 125.125 130.018 125.537 129.848C125.948 129.672 126.258 129.422 126.467 129.099C126.681 128.775 126.788 128.424 126.788 128.045C126.788 127.601 126.642 127.186 126.352 126.802C126.061 126.413 125.515 125.985 124.714 125.518L123.874 125.033L123.026 124.547C121.534 123.664 120.787 122.566 120.787 121.255C120.787 120.294 121.119 119.488 121.783 118.835C122.453 118.176 123.495 117.847 124.911 117.847C125.822 117.847 126.703 117.979 127.553 118.242V119.666C126.615 119.304 125.701 119.123 124.812 119.123C124.104 119.123 123.531 119.309 123.092 119.683C122.659 120.056 122.442 120.506 122.442 121.032C122.442 121.554 122.609 121.987 122.944 122.333C123.279 122.679 123.707 122.997 124.228 123.288L124.87 123.675L125.668 124.16L126.343 124.555C127.743 125.411 128.442 126.487 128.442 127.782C128.442 128.769 128.083 129.617 127.364 130.325C126.645 131.033 125.493 131.387 123.907 131.387C123.402 131.387 122.919 131.343 122.458 131.255C122.003 131.173 121.402 130.997 120.656 130.728ZM133.71 131V119.633H129.883V118.226H139.208V119.633H135.373V131H133.71ZM144.665 131.387C144.298 131.387 143.982 131.255 143.719 130.992C143.455 130.728 143.324 130.413 143.324 130.045C143.324 129.672 143.455 129.357 143.719 129.099C143.987 128.835 144.303 128.704 144.665 128.704C145.027 128.704 145.34 128.835 145.603 129.099C145.872 129.357 146.007 129.672 146.007 130.045C146.007 130.413 145.875 130.728 145.612 130.992C145.348 131.255 145.033 131.387 144.665 131.387ZM144.665 124.234C144.298 124.234 143.982 124.103 143.719 123.839C143.455 123.576 143.324 123.26 143.324 122.893C143.324 122.519 143.455 122.204 143.719 121.946C143.987 121.683 144.303 121.551 144.665 121.551C145.027 121.551 145.34 121.683 145.603 121.946C145.872 122.204 146.007 122.519 146.007 122.893C146.007 123.26 145.875 123.576 145.612 123.839C145.348 124.103 145.033 124.234 144.665 124.234ZM364.462 131H362.734L366.47 124.325L363.096 118.226H364.981L367.425 122.629L369.927 118.226H371.664L368.289 124.201L372.059 131H370.141L367.335 125.905L364.462 131ZM374.586 131H372.857L376.594 124.325L373.22 118.226H375.105L377.549 122.629L380.051 118.226H381.788L378.413 124.201L382.183 131H380.265L377.459 125.905L374.586 131ZM384.364 131.387H382.858L390.982 117.847H392.439L384.364 131.387ZM394.834 131H393.105L396.842 124.325L393.468 118.226H395.352L397.797 122.629L400.299 118.226H402.036L398.661 124.201L402.431 131H400.513L397.706 125.905L394.834 131ZM404.958 131H403.229L406.966 124.325L403.591 118.226H405.476L407.921 122.629L410.423 118.226H412.16L408.785 124.201L412.555 131H410.637L407.83 125.905L404.958 131ZM414.736 131.387H413.23L421.354 117.847H422.811L414.736 131.387ZM425.206 131H423.477L427.214 124.325L423.839 118.226H425.724L428.169 122.629L430.671 118.226H432.408L429.033 124.201L432.803 131H430.885L428.078 125.905L425.206 131ZM435.33 131H433.601L437.338 124.325L433.963 118.226H435.848L438.293 122.629L440.795 118.226H442.532L439.157 124.201L442.927 131H441.009L438.202 125.905L435.33 131ZM445.454 131H443.725L447.462 124.325L444.087 118.226H445.972L448.417 122.629L450.919 118.226H452.656L449.281 124.201L453.051 131H451.133L448.326 125.905L445.454 131ZM455.578 131H453.849L457.586 124.325L454.211 118.226H456.096L458.541 122.629L461.043 118.226H462.78L459.405 124.201L463.175 131H461.257L458.45 125.905L455.578 131ZM17.5231 142.489V143.765H8.58439V142.489H17.5231ZM17.5231 145.362V146.638H8.58439V145.362H17.5231ZM27.6471 142.489V143.765H18.7083V142.489H27.6471ZM27.6471 145.362V146.638H18.7083V145.362H27.6471ZM37.771 142.489V143.765H28.8323V142.489H37.771ZM37.771 145.362V146.638H28.8323V145.362H37.771ZM47.895 142.489V143.765H38.9563V142.489H47.895ZM47.895 145.362V146.638H38.9563V145.362H47.895ZM58.0189 142.489V143.765H49.0802V142.489H58.0189ZM58.0189 145.362V146.638H49.0802V145.362H58.0189ZM68.1429 142.489V143.765H59.2042V142.489H68.1429ZM68.1429 145.362V146.638H59.2042V145.362H68.1429ZM78.2668 142.489V143.765H69.3281V142.489H78.2668ZM78.2668 145.362V146.638H69.3281V145.362H78.2668ZM88.3908 142.489V143.765H79.4521V142.489H88.3908ZM88.3908 145.362V146.638H79.4521V145.362H88.3908ZM98.5147 142.489V143.765H89.576V142.489H98.5147ZM98.5147 145.362V146.638H89.576V145.362H98.5147ZM108.639 142.489V143.765H99.7V142.489H108.639ZM108.639 145.362V146.638H99.7V145.362H108.639ZM118.763 142.489V143.765H109.824V142.489H118.763ZM118.763 145.362V146.638H109.824V145.362H118.763ZM128.887 142.489V143.765H119.948V142.489H128.887ZM128.887 145.362V146.638H119.948V145.362H128.887ZM139.011 142.489V143.765H130.072V142.489H139.011ZM139.011 145.362V146.638H130.072V145.362H139.011ZM149.135 142.489V143.765H140.196V142.489H149.135ZM149.135 145.362V146.638H140.196V145.362H149.135ZM159.258 142.489V143.765H150.32V142.489H159.258ZM159.258 145.362V146.638H150.32V145.362H159.258ZM169.382 142.489V143.765H160.444V142.489H169.382ZM169.382 145.362V146.638H160.444V145.362H169.382ZM179.506 142.489V143.765H170.568V142.489H179.506ZM179.506 145.362V146.638H170.568V145.362H179.506ZM189.63 142.489V143.765H180.692V142.489H189.63ZM189.63 145.362V146.638H180.692V145.362H189.63ZM199.754 142.489V143.765H190.816V142.489H199.754ZM199.754 145.362V146.638H190.816V145.362H199.754ZM209.878 142.489V143.765H200.94V142.489H209.878ZM209.878 145.362V146.638H200.94V145.362H209.878ZM220.002 142.489V143.765H211.064V142.489H220.002ZM220.002 145.362V146.638H211.064V145.362H220.002ZM230.126 142.489V143.765H221.187V142.489H230.126ZM230.126 145.362V146.638H221.187V145.362H230.126ZM240.25 142.489V143.765H231.311V142.489H240.25ZM240.25 145.362V146.638H231.311V145.362H240.25ZM250.374 142.489V143.765H241.435V142.489H250.374ZM250.374 145.362V146.638H241.435V145.362H250.374ZM260.498 142.489V143.765H251.559V142.489H260.498ZM260.498 145.362V146.638H251.559V145.362H260.498ZM270.622 142.489V143.765H261.683V142.489H270.622ZM270.622 145.362V146.638H261.683V145.362H270.622ZM280.746 142.489V143.765H271.807V142.489H280.746ZM280.746 145.362V146.638H271.807V145.362H280.746ZM290.87 142.489V143.765H281.931V142.489H290.87ZM290.87 145.362V146.638H281.931V145.362H290.87ZM300.994 142.489V143.765H292.055V142.489H300.994ZM300.994 145.362V146.638H292.055V145.362H300.994ZM311.118 142.489V143.765H302.179V142.489H311.118ZM311.118 145.362V146.638H302.179V145.362H311.118ZM321.242 142.489V143.765H312.303V142.489H321.242ZM321.242 145.362V146.638H312.303V145.362H321.242ZM331.366 142.489V143.765H322.427V142.489H331.366ZM331.366 145.362V146.638H322.427V145.362H331.366ZM341.49 142.489V143.765H332.551V142.489H341.49ZM341.49 145.362V146.638H332.551V145.362H341.49ZM351.614 142.489V143.765H342.675V142.489H351.614ZM351.614 145.362V146.638H342.675V145.362H351.614ZM361.738 142.489V143.765H352.799V142.489H361.738ZM361.738 145.362V146.638H352.799V145.362H361.738ZM371.862 142.489V143.765H362.923V142.489H371.862ZM371.862 145.362V146.638H362.923V145.362H371.862ZM381.986 142.489V143.765H373.047V142.489H381.986ZM381.986 145.362V146.638H373.047V145.362H381.986ZM392.109 142.489V143.765H383.171V142.489H392.109ZM392.109 145.362V146.638H383.171V145.362H392.109ZM402.233 142.489V143.765H393.295V142.489H402.233ZM402.233 145.362V146.638H393.295V145.362H402.233ZM412.357 142.489V143.765H403.419V142.489H412.357ZM412.357 145.362V146.638H403.419V145.362H412.357ZM422.481 142.489V143.765H413.543V142.489H422.481ZM422.481 145.362V146.638H413.543V145.362H422.481ZM432.605 142.489V143.765H423.667V142.489H432.605ZM432.605 145.362V146.638H423.667V145.362H432.605ZM442.729 142.489V143.765H433.791V142.489H442.729ZM442.729 145.362V146.638H433.791V145.362H442.729ZM452.853 142.489V143.765H443.914V142.489H452.853ZM452.853 145.362V146.638H443.914V145.362H452.853ZM462.977 142.489V143.765H454.038V142.489H462.977ZM462.977 145.362V146.638H454.038V145.362H462.977Z" fill="black"/>
<path d="M313.266 88.3577V82.2257H320.419V83.699H314.797V86.8268H315.06C316.899 86.8268 318.314 87.2109 319.308 87.9791C320.301 88.7473 320.797 89.7816 320.797 91.0821C320.797 91.9052 320.597 92.6432 320.196 93.2962C319.796 93.9492 319.231 94.4623 318.501 94.8354C317.771 95.203 316.995 95.3869 316.172 95.3869C315.348 95.3869 314.295 95.1866 313.011 94.786V93.1151C313.477 93.3675 313.999 93.5761 314.575 93.7407C315.151 93.8998 315.683 93.9794 316.172 93.9794C316.66 93.9794 317.137 93.8614 317.604 93.6254C318.07 93.3895 318.432 93.0465 318.69 92.5966C318.948 92.1411 319.077 91.6775 319.077 91.2056C319.077 90.4099 318.723 89.7377 318.015 89.189C317.313 88.6348 316.062 88.3577 314.262 88.3577H313.266ZM326.896 81.8471C328.35 81.8471 329.459 82.4589 330.222 83.6826C330.984 84.9007 331.366 86.5442 331.366 88.6129C331.366 90.687 330.984 92.3359 330.222 93.5596C329.459 94.7778 328.35 95.3869 326.896 95.3869C325.448 95.3869 324.339 94.7778 323.571 93.5596C322.808 92.3359 322.427 90.687 322.427 88.6129C322.427 86.5442 322.808 84.9007 323.571 83.6826C324.339 82.4589 325.448 81.8471 326.896 81.8471ZM324.402 91.3455L328.822 84.4233C328.543 83.913 328.238 83.5701 327.909 83.3945C327.585 83.2134 327.248 83.1229 326.896 83.1229C325.98 83.1229 325.283 83.6332 324.806 84.6538C324.328 85.669 324.09 86.9585 324.09 88.5223C324.09 88.879 324.101 89.2631 324.123 89.6746C324.145 90.0862 324.238 90.6431 324.402 91.3455ZM329.374 85.9461L324.987 92.9094C325.223 93.3099 325.494 93.6117 325.802 93.8148C326.109 94.0123 326.452 94.1111 326.831 94.1111C327.873 94.1111 328.614 93.5294 329.053 92.3661C329.492 91.1973 329.711 89.9024 329.711 88.4812C329.711 87.6032 329.599 86.7582 329.374 85.9461ZM337.02 95.3869C336.653 95.3869 336.337 95.2552 336.074 94.9918C335.81 94.7284 335.679 94.4129 335.679 94.0452C335.679 93.6721 335.81 93.3566 336.074 93.0987C336.343 92.8353 336.658 92.7036 337.02 92.7036C337.382 92.7036 337.695 92.8353 337.959 93.0987C338.228 93.3566 338.362 93.6721 338.362 94.0452C338.362 94.4129 338.23 94.7284 337.967 94.9918C337.703 95.2552 337.388 95.3869 337.02 95.3869ZM347.144 81.8471C348.598 81.8471 349.707 82.4589 350.47 83.6826C351.232 84.9007 351.614 86.5442 351.614 88.6129C351.614 90.687 351.232 92.3359 350.47 93.5596C349.707 94.7778 348.598 95.3869 347.144 95.3869C345.696 95.3869 344.587 94.7778 343.819 93.5596C343.056 92.3359 342.675 90.687 342.675 88.6129C342.675 86.5442 343.056 84.9007 343.819 83.6826C344.587 82.4589 345.696 81.8471 347.144 81.8471ZM344.65 91.3455L349.07 84.4233C348.79 83.913 348.486 83.5701 348.157 83.3945C347.833 83.2134 347.495 83.1229 347.144 83.1229C346.228 83.1229 345.531 83.6332 345.054 84.6538C344.576 85.669 344.338 86.9585 344.338 88.5223C344.338 88.879 344.349 89.2631 344.37 89.6746C344.392 90.0862 344.486 90.6431 344.65 91.3455ZM349.622 85.9461L345.235 92.9094C345.471 93.3099 345.742 93.6117 346.05 93.8148C346.357 94.0123 346.7 94.1111 347.078 94.1111C348.121 94.1111 348.862 93.5294 349.301 92.3661C349.74 91.1973 349.959 89.9024 349.959 88.4812C349.959 87.6032 349.847 86.7582 349.622 85.9461ZM357.268 81.8471C358.722 81.8471 359.831 82.4589 360.594 83.6826C361.356 84.9007 361.738 86.5442 361.738 88.6129C361.738 90.687 361.356 92.3359 360.594 93.5596C359.831 94.7778 358.722 95.3869 357.268 95.3869C355.82 95.3869 354.711 94.7778 353.943 93.5596C353.18 92.3359 352.799 90.687 352.799 88.6129C352.799 86.5442 353.18 84.9007 353.943 83.6826C354.711 82.4589 355.82 81.8471 357.268 81.8471ZM354.774 91.3455L359.194 84.4233C358.914 83.913 358.61 83.5701 358.281 83.3945C357.957 83.2134 357.619 83.1229 357.268 83.1229C356.352 83.1229 355.655 83.6332 355.178 84.6538C354.7 85.669 354.462 86.9585 354.462 88.5223C354.462 88.879 354.473 89.2631 354.494 89.6746C354.516 90.0862 354.61 90.6431 354.774 91.3455ZM359.746 85.9461L355.359 92.9094C355.595 93.3099 355.866 93.6117 356.174 93.8148C356.481 94.0123 356.824 94.1111 357.202 94.1111C358.245 94.1111 358.986 93.5294 359.425 92.3661C359.864 91.1973 360.083 89.9024 360.083 88.4812C360.083 87.6032 359.971 86.7582 359.746 85.9461Z" fill="#FBFFD0"/>
<line x1="8" y1="63.5" x2="466.004" y2="63.5" stroke="black"/>
</g>
<defs>
<clipPath id="clip0_302_26">
<rect width="480" height="181" fill="white"/>
</clipPath>
</defs>
</svg>
